<svg width="304" height="304" viewBox="0 0 304 304" fill="none" xmlns="http://www.w3.org/2000/svg">
<path fill-rule="evenodd" clip-rule="evenodd" d="M23.1157 284.774L21.3291 286.145C20.3468 284.864 19.1646 283.892 17.7828 283.229C16.4063 282.568 14.893 282.237 13.2379 282.237C11.4359 282.237 9.76528 282.673 8.22589 283.539C6.68649 284.406 5.49897 285.573 4.65311 287.034C3.80727 288.494 3.38168 290.144 3.38168 291.967C3.38168 294.731 4.3273 297.037 6.21896 298.881C8.11022 300.731 10.4955 301.655 13.38 301.655C16.548 301.655 19.196 300.415 21.3291 297.936L23.1157 299.291C21.986 300.725 20.5778 301.839 18.8914 302.622C17.2049 303.405 15.3185 303.799 13.2379 303.799C9.27662 303.799 6.15054 302.48 3.86508 299.843C1.94736 297.62 0.98584 294.93 0.98584 291.783C0.98584 288.473 2.14691 285.683 4.46906 283.424C6.79684 281.159 9.70746 280.03 13.2065 280.03C15.3185 280.03 17.2257 280.445 18.928 281.275C20.6303 282.11 22.028 283.277 23.1157 284.774ZM27.6236 280.597H43.7009V303.231H41.4309V282.741H29.8932V303.231H27.6236V280.597ZM59.9828 280.03C63.4085 280.03 66.2772 281.175 68.5838 283.461C70.8901 285.746 72.0459 288.562 72.0459 291.904C72.0459 295.219 70.8954 298.03 68.594 300.336C66.2877 302.643 63.4822 303.799 60.1668 303.799C56.8148 303.799 53.9828 302.648 51.6765 300.352C49.3698 298.056 48.2141 295.277 48.2141 292.014C48.2141 289.839 48.7394 287.827 49.7901 285.967C50.8408 284.112 52.2751 282.657 54.0931 281.606C55.9058 280.555 57.8708 280.03 59.9828 280.03ZM60.0829 282.237C58.412 282.237 56.8253 282.673 55.3226 283.545C53.8251 284.417 52.6535 285.589 51.8076 287.065C50.9671 288.547 50.5468 290.191 50.5468 292.009C50.5468 294.694 51.4765 296.964 53.3417 298.813C55.2069 300.667 57.4557 301.592 60.0829 301.592C61.8427 301.592 63.4663 301.167 64.9585 300.316C66.4559 299.464 67.6223 298.298 68.4576 296.822C69.2929 295.345 69.7131 293.706 69.7131 291.899C69.7131 290.102 69.2929 288.478 68.4576 287.028C67.6223 285.578 66.4401 284.417 64.9218 283.545C63.4032 282.673 61.7901 282.237 60.0829 282.237ZM76.5908 280.597H81.1042C83.6891 280.597 85.4386 280.708 86.3423 280.933C87.6349 281.254 88.6909 281.906 89.5103 282.898C90.3354 283.886 90.7451 285.131 90.7451 286.629C90.7451 288.137 90.3459 289.377 89.5421 290.359C88.7434 291.337 87.6402 291.993 86.2372 292.335C85.2073 292.582 83.2896 292.702 80.4788 292.702H78.8607V303.231H76.5908V280.597ZM78.8607 282.804V290.496L82.6962 290.543C84.2458 290.543 85.3808 290.401 86.1008 290.118C86.8204 289.834 87.3877 289.382 87.7978 288.751C88.2075 288.121 88.4124 287.412 88.4124 286.634C88.4124 285.877 88.2075 285.179 87.7978 284.548C87.3877 283.918 86.8416 283.471 86.1688 283.203C85.4965 282.935 84.3985 282.804 82.864 282.804H78.8607ZM93.0098 282.804V280.597H105.398V282.804H100.355V303.231H98.0536V282.804H93.0098ZM126.514 303.231H124.15V285.841L109.213 303.231H108.703V280.597H110.973V298.246L126.004 280.597H126.514V303.231ZM132.052 280.597H136.512C138.309 280.597 139.691 280.808 140.652 281.233C141.619 281.659 142.381 282.315 142.938 283.198C143.5 284.075 143.779 285.058 143.779 286.13C143.779 287.139 143.531 288.053 143.043 288.878C142.554 289.702 141.834 290.37 140.889 290.885C142.066 291.284 142.969 291.752 143.6 292.293C144.236 292.829 144.724 293.48 145.076 294.247C145.428 295.009 145.607 295.839 145.607 296.732C145.607 298.55 144.945 300.09 143.616 301.345C142.286 302.601 140.505 303.231 138.267 303.231H132.052V280.597ZM134.258 282.804V290.055H135.556C137.132 290.055 138.293 289.908 139.034 289.618C139.775 289.324 140.363 288.862 140.794 288.231C141.23 287.601 141.446 286.897 141.446 286.13C141.446 285.095 141.083 284.28 140.358 283.687C139.628 283.098 138.472 282.804 136.885 282.804H134.258ZM134.258 292.324V301.025H137.069C138.724 301.025 139.938 300.862 140.71 300.542C141.483 300.216 142.102 299.706 142.57 299.018C143.038 298.329 143.274 297.583 143.274 296.785C143.274 295.776 142.943 294.893 142.286 294.142C141.63 293.396 140.726 292.881 139.575 292.603C138.803 292.419 137.458 292.324 135.54 292.324H134.258ZM150.057 280.597H152.327V290.086H163.865V280.597H166.135V303.231H163.865V292.293H152.327V303.231H150.057V280.597ZM171.625 280.597H173.895V290.307H175.529C178.492 290.307 180.62 290.448 181.912 290.738C183.205 291.027 184.245 291.683 185.033 292.713C185.826 293.748 186.22 295.077 186.22 296.706C186.22 298.309 185.837 299.633 185.065 300.683C184.297 301.734 183.315 302.422 182.128 302.748C180.935 303.069 178.938 303.231 176.138 303.231H171.625V280.597ZM173.895 301.025H176.311C178.859 301.025 180.52 300.904 181.292 300.662C182.065 300.421 182.684 299.974 183.142 299.317C183.599 298.666 183.825 297.825 183.825 296.801C183.825 295.671 183.536 294.757 182.963 294.048C182.385 293.343 181.655 292.913 180.767 292.75C179.879 292.592 178.224 292.514 175.802 292.514H173.895V301.025ZM188.868 280.597H191.138V303.231H188.868V280.597ZM214.466 303.231H212.102V285.841L197.164 303.231H196.655V280.597H198.925V298.246L213.956 280.597H214.466V303.231ZM200.123 275.144H202.14C202.492 275.679 202.96 276.079 203.548 276.347C204.131 276.615 204.835 276.751 205.645 276.751C206.469 276.751 207.137 276.63 207.641 276.394C208.146 276.158 208.624 275.743 209.075 275.144H211.03C210.804 276.068 210.226 276.841 209.301 277.461C208.371 278.081 207.147 278.391 205.629 278.391C204.121 278.391 202.892 278.086 201.94 277.476C200.984 276.867 200.38 276.09 200.123 275.144ZM228.667 280.597H230.968V289.088L240.042 280.597H243.089L232.182 290.748L243.94 303.231H240.919L230.968 292.661V303.231H228.667V280.597ZM265.639 303.231H263.175L255.662 285.71L248.023 303.231H245.559L255.426 280.597H255.93L265.639 303.231ZM267.71 280.661H270.247L277.12 296.033L283.388 280.597H285.867L277.267 300.935C276.468 302.843 275.05 303.799 273.006 303.799C272.186 303.799 271.414 303.631 270.683 303.3C269.953 302.964 269.034 302.175 267.915 300.935L269.564 299.58C270.699 300.699 271.456 301.335 271.834 301.487C272.218 301.64 272.601 301.718 272.99 301.718C273.584 301.718 274.099 301.561 274.534 301.245C274.971 300.925 275.449 300.137 275.969 298.871L267.71 280.661ZM289.792 303.231V280.597H301.141V282.804H292.062V290.055H293.118C295.929 290.055 297.973 290.301 299.244 290.801C300.521 291.3 301.519 292.083 302.249 293.155C302.98 294.226 303.347 295.424 303.347 296.738C303.347 298.461 302.701 299.974 301.409 301.277C300.116 302.58 298.314 303.231 296.007 303.231H289.792ZM292.062 292.324V301.025H294.831C296.475 301.025 297.678 300.862 298.44 300.542C299.207 300.216 299.817 299.717 300.268 299.044C300.726 298.366 300.951 297.615 300.951 296.785C300.951 295.734 300.631 294.846 299.99 294.116C299.344 293.385 298.545 292.902 297.584 292.671C296.628 292.44 295.204 292.324 293.318 292.324H292.062Z" fill="white"/>
<path fill-rule="evenodd" clip-rule="evenodd" d="M215.884 171.206C211.278 174.175 207.833 174.242 210.363 178.41C211.069 179.971 222.321 180.179 228.608 181.685C231.911 181.897 234.388 180.02 237.496 180.281C244.982 181.329 247.288 181.545 254.805 180.749C257.583 178.753 263.785 177.535 265.94 174.293C266.283 170.114 266.626 165.935 266.969 161.756C269.959 158.043 269.691 158.347 270.805 153.709C271.591 146.105 271.827 137.786 270.992 128.073C270.836 122.927 270.68 117.781 270.524 112.636C269.463 110.078 268.403 107.521 267.343 104.963C266.033 103.591 264.723 102.219 263.413 100.847C262.166 99.8175 260.918 98.7883 259.671 97.7591C258.766 97.0424 256.957 96.5129 255.554 97.0108C254.868 96.231 254.68 95.3268 253.496 94.6716C248.615 91.8624 248.487 91.7215 245.356 95.42C241.343 100.038 237.602 101.986 235.812 108.332C230.219 120.419 225.73 129.563 222.713 143.324C222.713 144.228 222.713 145.133 222.713 146.037C222.233 145.9 221.45 146.099 220.842 147.254C217.074 155.734 218.073 162.881 215.884 171.206ZM259.856 175.304C259.222 170.885 258.296 169.868 257.173 171.138C256.366 172.56 255.424 173.847 253.309 173.961C252.168 173.134 246.977 176.411 246.623 171.881C249.461 163.357 245.305 164.094 237.41 170.692C234.562 172.099 234.414 172.742 232.208 171.881C235.985 163.156 235.388 160.779 229.088 166.68C228.604 173.057 225.278 174.915 221.212 175.596C225.501 170.377 226.186 167.376 224.003 166.14C223.052 165.602 218.874 174.844 219.578 165.491C218.245 161.685 218.923 158.123 221.064 157.913C226.996 176.378 237.311 138.791 241.867 157.021C242.581 159.8 247.387 158.032 250.528 158.166C252.225 156.643 252.703 157.009 254.4 155.486C256.764 153.284 255.081 152.545 254.032 152.244C253.736 150.544 252.629 148.104 255.577 149.154C256.439 147.371 255.328 145.588 253.199 143.805C256.481 140.869 257.749 139.795 256.052 135.84C257.211 136.368 258.613 136.749 259.381 135.959C261.801 133.216 261.538 130.132 261.52 125.974C261.233 122.396 261.87 120.367 262.709 114.801C262.828 118.169 262.947 121.536 263.066 124.904C263.066 127.004 263.066 129.104 263.066 131.204C263.026 131.957 262.986 132.71 262.947 133.463C262.674 136.333 262.177 139.026 259.499 141.19C257.767 143.032 261.224 146.711 260.008 151.14C258.661 152.171 258.533 154.603 257.003 155.572C255.846 156.714 253.507 157.523 257.835 160.208C254.428 163.292 255.19 166.772 255.339 170.193C257.486 170.646 259.193 168.682 260.688 165.558C260.411 168.806 260.133 172.055 259.856 175.304ZM261.821 106.82C262.565 107.52 262.817 108.46 262.384 108.92C261.951 109.38 260.997 109.186 260.253 108.486C259.509 107.786 259.257 106.845 259.69 106.385C260.123 105.925 261.077 106.12 261.821 106.82ZM254.613 103.668C254.688 103.698 254.761 103.73 254.831 103.765C255.222 103.382 255.936 103.126 256.753 103.126C257.99 103.126 258.992 103.714 258.992 104.44C258.992 105.166 257.99 105.754 256.753 105.754C256.51 105.754 256.277 105.732 256.057 105.69C256.048 105.863 256.012 106.036 255.946 106.204C255.568 107.168 254.359 107.595 253.245 107.159C252.132 106.722 251.535 105.587 251.912 104.623C252.29 103.659 253.499 103.232 254.613 103.668ZM247.942 101.535L247.942 101.519L247.942 101.503C247.958 101.049 248.691 100.666 249.701 100.531C249.451 100.203 249.351 99.8673 249.454 99.576C249.699 98.8784 251.008 98.7034 252.377 99.1853C253.747 99.6669 254.658 100.623 254.413 101.32C254.249 101.786 253.609 102.019 252.793 101.978C252.376 102.322 251.505 102.558 250.499 102.558C249.099 102.558 247.962 102.101 247.942 101.535ZM245.821 98.9463C246.645 99.1923 247.216 99.7156 247.097 100.115C246.978 100.514 246.214 100.638 245.389 100.392C244.565 100.146 243.993 99.623 244.112 99.2239C244.231 98.8248 244.996 98.7006 245.821 98.9463Z" fill="white" stroke="white" stroke-width="0.265123"/>
<path fill-rule="evenodd" clip-rule="evenodd" d="M124.528 26.6511C125.11 26.6435 125.702 26.8948 125.826 26.5843C126.029 26.106 125.439 24.5577 125.66 23.9527C125.848 23.4348 126.561 23.7337 126.933 23.8445C126.704 22.9449 126.613 22.2483 126.613 22.2483C125.96 20.4371 128.912 20.2326 128.904 19.9875C128.85 18.1771 129.59 10.8975 127.766 8.90582C127.451 8.57969 128.178 11.9631 128.161 14.2979C128.151 15.6893 127.69 16.7552 127.676 16.6873C127.046 13.6885 125.858 10.7664 123.134 8.7453C123.959 5.68987 124.648 3.1389 125.473 0.0834961C124.259 2.87087 123.046 5.65829 121.832 8.44568C119.563 8.05707 117.154 8.30551 114.351 10.8042C112.401 12.2503 110.904 14.8249 110.189 17.3675C109.086 25.4991 105.362 26.8556 102.145 29.5217C101.234 25.7043 97.737 18.6197 93.3534 19.0694C82.5347 20.1793 88.2083 50.331 88.4694 57.6542C87.167 57.3938 85.8643 57.133 84.562 56.8726C83.5393 56.4945 83.2593 57.2304 83.0965 58.1427C71.0379 49.9319 58.9797 41.7216 46.9211 33.5108C45.6528 32.52 42.9646 31.6114 42.6229 32.1434C42.2194 32.7205 44.142 34.6966 45.3438 35.5003C57.3592 43.836 68.9003 51.8433 80.9157 60.179C81.3798 62.3014 82.279 64.2383 83.9438 65.8449C85.4416 66.9519 86.9397 68.0593 88.4374 69.1662C90.5363 70.6462 91.4133 71.8977 91.3679 72.976C90.8145 73.4644 90.261 73.9525 89.7075 74.441C87.5578 74.2652 85.1924 74.8674 83.2589 73.914C83.2571 73.7448 83.2073 73.5854 83.1191 73.4368C81.208 73.4248 79.4077 73.6533 78.0331 74.8038C78.0331 75.3319 78.0331 75.8603 78.0331 76.3884C84.7828 75.8992 89.6744 77.045 95.5626 79.682C96.9623 81.0817 99.2133 82.9114 100.613 84.3111C93.9716 80.9582 86.3699 78.3604 75.2602 78.5275C71.4792 95.0372 63.8019 97.5232 55.7703 98.7304C56.6462 98.149 56.1444 96.3879 55.5324 94.5313C62.2051 93.8355 68.5233 91.7203 72.012 78.29C71.1389 78.3459 70.7383 78.1469 70.5858 77.8146C59.2063 79.3004 52.5797 83.0716 49.7488 88.6685L48.8586 88.0468C48.8278 88.3268 48.8223 88.6111 48.8463 88.9006C45.2305 88.5519 42.0643 89.0208 40.7565 92.869C33.3814 98.9428 37.2365 111.925 35.0662 124.741C33.4435 134.322 34.0587 143.983 33.5328 151.059C33.5201 153.665 34.2596 157.314 38.0642 157.022C38.6268 164.415 36.9486 171.809 32.8174 179.202C39.5162 181.371 44.8266 170.94 44.8266 170.94C44.495 182.119 44.4249 180.487 40.6878 185.642C50.3077 182.784 55.191 173.12 56.4291 158.214C56.4291 158.214 59.0985 156.748 59.0523 157.022C58.3369 161.474 57.6214 165.926 56.9059 170.378C56.1109 175.625 55.3159 180.872 54.5209 186.119C53.8661 191.064 55.8077 192.299 58.0986 193.035C60.8018 192.797 63.5045 192.558 66.2076 192.32C67.924 191.975 76.097 189.967 75.403 187.212C74.2967 185.459 72.7994 184.587 70.6624 185.152C67.9505 179.907 67.9132 173.427 67.1614 167.277C67.4 163.938 67.6386 160.599 67.8772 157.26C71.0731 153.401 72.2996 149.079 71.9317 144.381C76.1823 136.048 81.784 130.43 86.2358 123.354C98.2429 127.247 109.13 127.56 121.54 124.824C121.727 129.568 121.429 135.341 122.971 137.226C121.715 138.919 121.164 142.323 122.021 146.632C121.305 152.117 118.678 162.03 117.962 167.516C117.485 169.185 115.436 171.17 116.531 172.524C118.936 174.12 121.908 174.773 124.879 174.671C126.946 173.955 129.013 173.24 131.08 172.524C130.921 174.432 129.917 177.065 130.603 178.248C137.913 185.036 141.788 182.628 149.515 179.034C149.455 174.869 148.785 175.336 145.102 173.893C144.593 167.852 143.919 162.183 143.411 156.142C144.174 155.31 145.178 155.264 145.128 151.754C146.415 150.048 147.847 148.328 147.417 146.794C148.069 144.208 148.537 141.377 148.18 137.446C148.18 137.446 149.78 135.178 150.469 130.769C152.242 128.385 154.334 126.494 155.238 122.757C155.613 123.167 157.087 120.359 158.672 117.225C158.943 117.4 159.409 116.206 160.47 115.493L165.894 119.497C159.195 116.796 157.705 125.445 157.528 126.954C155.824 132.32 155.995 133.5 149.343 138.753C152.413 141.191 155.927 138.922 158.863 136.111C156.256 139.863 152.037 140.341 151.041 147.366C150.978 151.637 151.651 153.3 147.226 159.576C152.684 158.231 155.627 153.109 156.574 150.419C157.733 144.305 157.172 145.151 159.264 142.276C155.724 150.764 159.773 151.078 161.534 156.142C161.26 151.318 160.262 146.789 162.559 145.361C164.045 144.436 164.432 143.128 164.835 140.369C165.39 134.54 167.19 133.714 167.19 133.714C164.05 143.3 168.517 140.684 169.165 145.268C169.715 143.392 170.935 141.592 170.815 139.641C170.571 135.655 171.255 132.596 173.362 130.96C175.013 129.851 175.511 128.657 176.424 126.775C183.482 131.735 188.623 135.348 195.681 140.308C196.065 142.598 197.69 142.778 199.425 142.771C200.53 143.985 201.635 145.198 202.74 146.412C204.775 147.048 206.81 147.684 208.845 148.32C207.509 146.476 206.174 144.632 204.839 142.788C203.226 142.23 201.614 141.672 200.002 141.113C199.652 139.172 198.016 138.388 196.593 138.461C193.858 136.553 191.93 134.394 189.195 132.486C185.889 129.879 181.952 127.65 178.646 125.042C179.917 123.898 181.819 122.375 183.091 121.231L180.746 118.98L175.94 117.158L175.384 113.313L177.61 113.668L180.948 115.388L183.528 117.664L186.143 118.515V118.369C187.288 116.78 188.432 115.19 189.577 113.6C188.413 118.695 190.614 121.926 182.665 125.242C196.341 125.438 192 119.011 198.543 113.219C198.543 112.519 198.543 111.82 198.543 111.12C201.709 109.719 203.553 105.042 202.931 101.772C204.413 101.824 205.337 101.856 206.509 101.082C204.458 100.481 203.584 98.8059 201.595 97.9572C202.677 97.7665 204.17 98.4627 205.148 97.8595C203.52 97.1829 202.241 95.5689 200.688 94.6998L198.292 97.5217C197.171 97.5875 196.05 97.6536 194.93 97.7193L200.023 92.2676C199.91 88.467 197.351 83.1809 183.854 71.2494C179.261 68.081 170.069 64.3654 163.585 64.2844C160.088 62.7583 160.181 60.4561 154.857 60.7572C150.533 61.0114 147.803 64.434 141.759 67.3797C141.1 61.1585 136.473 60.1656 134.429 66.86C128.99 67.7113 128.435 44.5031 128.221 39.9456C128.167 37.5824 126.428 34.673 123.952 32.142C126.806 30.3333 124.464 28.8767 124.528 26.6511ZM128.636 116.689L128.671 115.393L129.35 114.949L128.572 112.302C128.604 111.796 128.82 111.45 129.278 111.311C127.686 109.476 129.637 109.784 129.525 106.871C128.144 103.771 130.844 105.352 131.128 102.43C132.869 101.241 131.68 99.0907 133.472 97.4967C133.153 97.3772 132.917 96.7812 132.599 96.6621C132.26 96.5353 131.838 96.8836 131.498 96.7565C131.051 96.5328 131.348 96.0185 130.9 95.7952C130.51 95.6002 129.373 95.6935 128.983 95.4988C128.724 95.3695 128.878 94.8458 128.618 94.7166C128.319 94.5669 127.605 94.8099 127.305 94.6599C127.221 93.9528 127.137 93.1037 127.058 91.9462C127.916 92.2673 128.898 92.4151 129.525 90.8363C129.703 90.155 129.435 89.5845 128.785 89.1094C128.383 88.4426 128.546 87.2104 129.525 85.1624C132.027 85.0575 134.275 83.9352 136.432 82.4491C136.637 85.1628 136.487 88.5876 137.275 91.1719C138.401 91.0281 139.287 90.4303 140.502 89.4795C144.666 90.7535 148.031 92.2393 149.259 94.2898C147.685 98.105 146.404 100.105 145.313 100.95C142.558 98.8121 139.695 96.917 136.94 94.779C136.891 95.8744 136.109 96.7914 134.992 97.3042C137.911 99.1953 141.283 101.896 144.202 103.787C143.75 104.609 143.298 105.432 142.846 106.254C142.368 108.069 141.806 109.753 140.379 110.078C141.025 111.352 140.946 112.627 140.379 113.901C142.302 115.373 144.756 116.154 148.026 115.875C148.848 116.656 149.671 117.437 150.493 118.218C150.495 119.799 147.886 124.324 142.571 123.444C141.378 123.198 140.338 122.041 139.145 121.795C138.62 123.028 137.747 123.958 136.573 124.528L138.832 125.927C138.585 130.935 138.339 135.943 138.093 140.951C136.935 144.609 136.741 147.785 137.6 150.433C136.246 155.934 134.891 161.435 133.536 166.935C131.64 170.126 130.393 170.805 129.842 168.782C129.349 165.499 128.856 162.214 128.364 158.93C129.316 156.358 129.409 152.353 129.349 148.094C131.274 145.009 132.363 141.525 131.812 137.256L133.726 125.175C132.721 125.204 131.604 125.069 130.388 124.755C130.183 124.262 129.977 123.768 129.771 123.275C128.986 123.358 128.664 122.798 128.538 118.958C128.785 118.629 129.032 118.3 129.278 117.971C129.032 117.539 128.773 117.105 128.636 116.689ZM76.2572 73.325C70.6911 73.4227 63.0589 76.4356 58.2355 78.9383C62.5915 77.386 66.5806 76.2689 69.7933 76.0713C71.0005 74.8129 72.9152 74.1926 75.5769 74.2493C75.7603 73.9373 75.9971 73.6304 76.2572 73.325ZM92.2904 24.7818C95.9803 24.4299 100.027 33.1556 101.329 44.2711C102.152 51.2964 101.681 57.5946 100.293 61.367L99.7806 60.2255C100.676 56.4219 100.889 51.0687 100.203 45.2106C98.901 34.0952 94.8541 25.3694 91.1642 25.7213C90.8787 25.7486 90.6038 25.83 90.3401 25.9607C90.9162 25.2619 91.5695 24.8508 92.2904 24.7818ZM118.189 60.6947C117.795 62.1892 117.577 63.4196 118.196 65.3103C118.43 66.555 119.567 68.1199 119.567 68.1199C121.975 72.5409 124.384 76.9622 126.792 81.3832C130.355 79.8037 130.624 80.1811 132.434 76.4341C130.916 71.881 129.399 67.3282 127.881 62.775C126.688 59.8358 124.781 57.1276 120.359 58.123C119.543 58.484 118.733 59.5307 118.189 60.6947ZM168.313 93.3633C168.229 94.418 168.144 95.4723 168.06 96.527C171.254 100.882 173.851 105.103 175.527 109.119C176.138 108.993 176.75 108.866 177.362 108.74C174.346 102.027 171.329 97.0391 168.313 93.3633ZM142.133 68.3207C142.396 69.1444 142.483 69.4172 142.747 70.2409C148.832 73.0907 157.215 80.6892 161.802 87.4962C161.077 85.5851 159.628 83.6229 159.628 81.7634C152.142 75.1318 146.245 70.5659 142.133 68.3207ZM116.703 81.2931L91.7994 63.7854C93.1043 62.3541 104.853 66.1166 107.294 67.3376C108.956 72.5394 111.695 75.9446 115.882 76.9361L116.703 81.2931ZM58.3764 145.817C58.87 143.415 59.7416 141.152 62.5515 139.593C62.8573 137.414 63.6186 135.017 64.9151 132.267C63.8593 130.087 63.2056 127.974 63.182 125.965C61.5179 125.05 59.933 123.03 58.3764 120.608C60.127 126.881 61.5931 129.508 61.8433 136.017C58.4549 141.31 57.8618 135.518 58.3764 145.817Z" fill="white" stroke="white" stroke-width="0.276742"/>
<path fill-rule="evenodd" clip-rule="evenodd" d="M30.4572 259.421H25.2422L14.4673 243.775L25.2422 228.129H30.4572L21.38 243.775L30.4572 259.421ZM16.9887 259.421H11.9087L0.986328 243.775L11.9087 228.129H16.9887L8.08347 243.775L16.9887 259.421ZM78.0097 252.927C78.0097 256.666 76.6323 259.212 73.8647 260.565C71.9705 261.475 68.9322 261.93 64.7502 261.93H39.166C39.7932 253.64 40.1009 244.489 40.1009 234.464C40.1009 218.633 45.7833 210.712 57.1488 210.712C61.1339 210.712 64.5042 211.155 67.2349 212.041C71.3924 213.369 73.4709 215.583 73.4709 218.683C73.4709 224.784 68.2065 229.913 57.69 234.07V234.328L57.8375 234.255C59.4857 234.858 61.9459 235.977 65.1808 237.6C68.6372 239.384 70.9251 240.712 72.032 241.61C76.0172 244.87 78.0097 248.646 78.0097 252.927ZM61.872 219.913C61.872 217.674 61.6382 216.112 61.1833 215.227C60.4821 213.886 59.1413 213.209 57.1488 213.209C55.3406 213.209 53.803 214.525 52.5361 217.17C51.4785 219.409 50.9493 221.537 50.9493 223.554V232.631H51.4906C54.5905 232.631 57.1488 231.253 59.1659 228.486C60.9619 225.989 61.872 223.135 61.872 219.913ZM65.1069 251.906C65.1069 247.92 63.7661 244.28 61.0724 240.995C58.2433 237.539 54.8609 235.792 50.9493 235.768C50.9493 244.206 50.7404 252.078 50.3345 259.409H56.7184C62.3148 259.409 65.1069 256.912 65.1069 251.906ZM136.657 261.93H125.562C125.107 253.615 124.873 245.14 124.873 236.518C124.873 225.694 125.132 217.44 125.66 211.745H136.657C135.98 215.829 135.648 221.524 135.648 228.831C135.648 241.979 135.98 253.013 136.657 261.93ZM121.7 251.906C121.7 256.235 119.978 259.114 116.509 260.565C114.357 261.475 110.753 261.93 105.697 261.93H84.3687C85.0944 253.258 85.4512 244.095 85.4512 234.464V229.372C85.4512 222.041 85.0944 216.174 84.3687 211.745H95.4638C96.0171 219.052 96.3 226.013 96.3 232.619C101.011 232.717 106.288 234.759 112.155 238.744C118.514 243.074 121.7 247.465 121.7 251.906ZM108.797 251.906C108.797 244.23 104.627 238.572 96.3 234.944C96.3 243.086 96.0665 251.241 95.6113 259.409H101.921C104.492 259.409 106.3 258.794 107.358 257.564C108.317 256.42 108.797 254.525 108.797 251.906ZM183.779 251.906C183.779 256.235 182.278 259.114 179.277 260.565C177.333 261.475 173.914 261.93 169.043 261.93H144.935C145.612 253.013 145.943 241.34 145.943 226.924C145.943 220.602 145.612 215.546 144.935 211.745H181.294C178.92 216.801 177.087 222.324 175.821 228.314H175.599C175.624 228.265 175.649 228.191 175.673 228.092C175.673 227.613 174.8 225.989 173.041 223.222C170.974 219.962 169.855 218.166 169.695 217.859C167.026 215.485 162.499 214.292 156.104 214.292C156.509 218.302 156.718 224.415 156.718 232.631C161.688 232.68 167.284 234.648 173.508 238.547C180.359 242.816 183.779 247.281 183.779 251.906ZM170.876 251.906C170.876 243.025 166.165 237.367 156.718 234.944C156.718 243.923 156.509 252.078 156.104 259.409H162.487C165.316 259.409 167.383 258.88 168.686 257.822C170.15 256.641 170.876 254.673 170.876 251.906ZM226.03 234.083C226.03 240.356 224.406 246.198 221.159 251.635C217.801 257.256 213.324 261.327 207.752 263.849C206.116 261.536 203.521 259.077 199.966 256.457C196.251 253.751 193.791 251.635 192.623 250.122C190.458 247.33 189.375 243.812 189.375 239.556C189.375 233.357 191.012 227.514 194.271 222.004C197.69 216.309 202.155 212.25 207.678 209.827C209.314 212.115 211.922 214.55 215.501 217.145C219.203 219.839 221.639 221.942 222.82 223.48C224.96 226.272 226.03 229.802 226.03 234.083ZM218.453 246.543C218.453 241.93 217.432 237.908 215.39 234.476C213.718 231.61 210.889 228.523 206.928 225.214C204.665 223.332 203.459 222.311 203.287 222.151C201.946 220.946 200.876 219.79 200.077 218.683C198.059 220.798 197.051 223.591 197.051 227.047C197.051 232.139 197.949 236.333 199.757 239.618C201.442 242.717 204.382 245.854 208.588 249.027C210.839 250.737 212.045 251.635 212.192 251.734C213.508 252.816 214.554 253.886 215.316 254.944C217.407 252.434 218.453 249.642 218.453 246.543ZM266.867 219.347C266.867 223.455 264 227.76 258.281 232.25C254.394 235.325 249.671 238.166 244.124 240.761C244.124 248.092 244.443 255.153 245.095 261.93H233.644C233.14 253.972 232.881 245.448 232.881 236.358C232.881 229.482 234.32 223.787 237.211 219.273C240.594 213.91 245.526 211.229 252.02 211.229C256.461 211.229 259.683 211.561 261.676 212.238C265.132 213.418 266.867 215.78 266.867 219.347ZM255.477 220.884C255.477 218.695 255.255 217.096 254.825 216.087C254.148 214.525 252.881 213.75 251.012 213.75C248.515 213.75 246.645 215.792 245.427 219.876C244.554 222.729 244.124 225.817 244.124 229.138V238.547C251.688 234.021 255.477 228.141 255.477 220.884ZM303.349 243.775L292.426 259.421H287.42L296.35 243.775L287.383 228.129H292.426L303.349 243.775ZM289.905 243.775L279.204 259.421H273.976L283.054 243.775L273.976 228.129H279.204L289.905 243.775Z" fill="white"/>
</svg>
