<?xml version="1.0" standalone="no"?>
<!DOCTYPE svg PUBLIC "-//W3C//DTD SVG 1.0//EN" "http://www.w3.org/TR/2001/REC-SVG-20010904/DTD/svg10.dtd">
<svg xmlns="http://www.w3.org/2000/svg" xmlns:xlink="http://www.w3.org/1999/xlink" id="body_1" width="1122" height="793">

<g transform="matrix(1.3333334 0 0 1.3333334 0 0)">
    <path d="M0 0L1122 0L1122 793L0 793z" stroke="none" fill="#FFFFFF" fill-rule="evenodd" />
	<g transform="matrix(0.75 0 0 0.75 -0 -0)">
		<g>
			<g transform="matrix(1 0 0 1 561.2598 396.8504)">
				<g>
					<g>
						<g>
							<g>
							</g>
						</g>
					</g>
					<g>
					</g>
				</g>
				<g>
					<g>
                        <path d="M-263.19666 -299.57028C -173.09651 -299.57028 -100.0558 -226.52957 -100.0558 -136.42943C -100.0558 -46.329285 -173.09651 26.711426 -263.19666 26.711426C -353.2968 26.711426 -426.33752 -46.329285 -426.33752 -136.42943C -426.33752 -226.52957 -353.2968 -299.57028 -263.19666 -299.57028zzM-263.19666 -287.08878C -179.9899 -287.08878 -112.53729 -219.6362 -112.53729 -136.42943C -112.53729 -53.222656 -179.9899 14.229919 -263.19666 14.229919C -346.4034 14.229919 -413.85602 -53.222656 -413.85602 -136.42943C -413.85602 -219.6362 -346.4034 -287.08878 -263.19666 -287.08878zz" stroke="#131313" stroke-width="0.19933416" fill="#131313" fill-rule="evenodd" />
					</g>
				</g>
				<g>
					<g>
                        <path d="M-345.97717 -34.389923L-349.5167 -34.389923L-349.5167 -34.389923L-356.82895 -45.00813L-356.82895 -45.00813L-349.5167 -55.626335L-349.5167 -55.626335L-345.97717 -55.626335L-345.97717 -55.626335L-352.13782 -45.00813L-352.13782 -45.00813L-345.97717 -34.389923zzM-355.11795 -34.389923L-358.56528 -34.389923L-358.56528 -34.389923L-365.97806 -45.00813L-365.97806 -45.00813L-358.56528 -55.626335L-358.56528 -55.626335L-355.11795 -55.626335L-355.11795 -55.626335L-361.16144 -45.00813L-361.16144 -45.00813L-355.11795 -34.389923zzM-313.7053 -38.79723C -313.7053 -36.259655 -314.64035 -34.531654 -316.5184 -33.61361C -317.80383 -32.995655 -319.86594 -32.686867 -322.70398 -32.686867L-322.70398 -32.686867L-340.06714 -32.686867C -339.64154 -38.313072 -339.43256 -44.52397 -339.43256 -51.327118C -339.43256 -62.070427 -335.57593 -67.44643 -327.86304 -67.44643C -325.1584 -67.44643 -322.87103 -67.14595 -321.01794 -66.54501C -318.19614 -65.64359 -316.7856 -64.140854 -316.7856 -62.037167C -316.7856 -57.896694 -320.3584 -54.41575 -327.49567 -51.59433L-327.49567 -51.59433L-327.49567 -51.41896L-327.49567 -51.41896L-327.3955 -51.46923C -326.27676 -51.059906 -324.60736 -50.3006 -322.4118 -49.19849C -320.06625 -47.988285 -318.5136 -47.08649 -317.76224 -46.47723C -315.05762 -44.26507 -313.7053 -41.702175 -313.7053 -38.79723zzM-324.65723 -61.20227C -324.65723 -62.72164 -324.81598 -63.7818 -325.12476 -64.382744C -325.60062 -65.292854 -326.5107 -65.75207 -327.86304 -65.75207C -329.08987 -65.75207 -330.1334 -64.85858 -330.99323 -63.064064C -331.71097 -61.544693 -332.07004 -60.100536 -332.07004 -58.73159L-332.07004 -58.73159L-332.07004 -52.57096L-332.07004 -52.57096L-331.70267 -52.57096C -329.59933 -52.57096 -327.86304 -53.50602 -326.4937 -55.384064C -325.27518 -57.078804 -324.65723 -59.015434 -324.65723 -61.20227zzM-322.4621 -39.490017C -322.4621 -42.195026 -323.37183 -44.665703 -325.19998 -46.89449C -327.11996 -49.240444 -329.41565 -50.425705 -332.07004 -50.442333C -332.07004 -44.71597 -332.21213 -39.37323 -332.48727 -34.39824L-332.48727 -34.39824L-328.15518 -34.39824C -324.35675 -34.39824 -322.4621 -36.0926 -322.4621 -39.490017zzM-273.90347 -32.686867L-281.43304 -32.686867C -281.74182 -38.329704 -281.90057 -44.081387 -281.90057 -49.93323C -281.90057 -57.27912 -281.72522 -62.88038 -281.36615 -66.74532L-281.36615 -66.74532L-273.90347 -66.74532C -274.36267 -63.973797 -274.58795 -60.108852 -274.58795 -55.15049C -274.58795 -46.226646 -274.36267 -38.739025 -273.90347 -32.686867zzM-284.05414 -39.490017C -284.05414 -36.55181 -285.22278 -34.598553 -287.57706 -33.61361C -289.03784 -32.995655 -291.48358 -32.686867 -294.9146 -32.686867L-294.9146 -32.686867L-309.38947 -32.686867C -308.89697 -38.57197 -308.65472 -44.790806 -308.65472 -51.327118L-308.65472 -51.327118L-308.65472 -54.78312C -308.65472 -59.75849 -308.89697 -63.740223 -309.38947 -66.74532L-309.38947 -66.74532L-301.8599 -66.74532C -301.4842 -61.786964 -301.2922 -57.062176 -301.2922 -52.579277C -298.0951 -52.512383 -294.51398 -51.126804 -290.5319 -48.422176C -286.21643 -45.48397 -284.05414 -42.503815 -284.05414 -39.490017zzM-292.81094 -39.490017C -292.81094 -44.698963 -295.6407 -48.538963 -301.2922 -51.0017C -301.2922 -45.475655 -301.45093 -39.940914 -301.75974 -34.39824L-301.75974 -34.39824L-297.47714 -34.39824C -295.7325 -34.39824 -294.50568 -34.8155 -293.78757 -35.650394C -293.13635 -36.426712 -292.81094 -37.712128 -292.81094 -39.490017zzM-241.92375 -39.490017C -241.92375 -36.55181 -242.94196 -34.598553 -244.97913 -33.61361C -246.2978 -32.995655 -248.61844 -32.686867 -251.92401 -32.686867L-251.92401 -32.686867L-268.28558 -32.686867C -267.82635 -38.739025 -267.6011 -46.660915 -267.6011 -56.44422C -267.6011 -60.735123 -267.82635 -64.165794 -268.28558 -66.74532L-268.28558 -66.74532L-243.6098 -66.74532C -245.22101 -63.31427 -246.46486 -59.56649 -247.3247 -55.500854L-247.3247 -55.500854L-247.47475 -55.500854C -247.45811 -55.534492 -247.4415 -55.58438 -247.42487 -55.651276C -247.42487 -55.976692 -248.01749 -57.078804 -249.21106 -58.956852C -250.61365 -61.16901 -251.37332 -62.38791 -251.48181 -62.596535C -253.29333 -64.20775 -256.36496 -65.01733 -260.70575 -65.01733C -260.4306 -62.296066 -260.28848 -58.147278 -260.28848 -52.57096C -256.91602 -52.537704 -253.11795 -51.20202 -248.89395 -48.55559C -244.24438 -45.658962 -241.92375 -42.628914 -241.92375 -39.490017zzM-250.68054 -39.490017C -250.68054 -45.51723 -253.87766 -49.35723 -260.28848 -51.0017C -260.28848 -44.90797 -260.4306 -39.37323 -260.70575 -34.39824L-260.70575 -34.39824L-256.37366 -34.39824C -254.45364 -34.39824 -253.05106 -34.756916 -252.16628 -35.475025C -251.173 -36.276287 -250.68054 -37.61197 -250.68054 -39.490017zzM-213.24962 -51.586018C -213.24962 -47.32876 -214.35173 -43.363655 -216.55519 -39.673702C -218.83424 -35.859024 -221.8726 -33.095814 -225.6544 -31.38482C -226.76445 -32.95408 -228.52571 -34.623497 -230.93817 -36.401386C -233.4595 -38.23824 -235.12892 -39.673702 -235.92188 -40.7006C -237.39096 -42.595657 -238.1257 -44.982803 -238.1257 -47.87112C -238.1257 -52.07849 -237.01529 -56.043594 -234.80313 -59.783436C -232.4825 -63.64838 -229.45245 -66.4029 -225.70428 -68.04737C -224.59424 -66.49474 -222.82428 -64.84196 -220.39519 -63.080696C -217.88255 -61.252537 -216.22977 -59.825012 -215.42851 -58.781483C -213.97604 -56.886803 -213.24962 -54.490963 -213.24962 -51.586018zzM-218.39166 -43.129704C -218.39166 -46.260284 -219.08482 -48.98986 -220.4704 -51.318806C -221.60577 -53.26375 -223.52577 -55.35912 -226.2134 -57.604538C -227.74939 -58.881638 -228.56766 -59.574806 -228.68445 -59.683277C -229.59418 -60.501167 -230.3206 -61.285797 -230.86334 -62.037167C -232.2323 -60.601326 -232.91676 -58.70665 -232.91676 -56.360695C -232.91676 -52.905075 -232.3075 -50.058334 -231.08029 -47.829544C -229.93661 -45.72586 -227.94139 -43.59723 -225.08672 -41.443657C -223.55902 -40.28334 -222.74075 -39.673702 -222.6406 -39.60718C -221.7475 -38.872444 -221.03809 -38.146397 -220.5203 -37.428284C -219.10146 -39.13134 -218.39166 -41.026016 -218.39166 -43.129704zzM-185.53548 -61.58627C -185.53548 -58.798492 -187.48079 -55.876537 -191.36237 -52.82986C -194.0001 -50.742805 -197.20552 -48.81449 -200.9703 -47.05323C -200.9703 -42.077858 -200.75336 -37.286552 -200.31078 -32.686867L-200.31078 -32.686867L-208.08263 -32.686867C -208.42505 -38.087814 -208.60004 -43.872757 -208.60004 -50.041702C -208.60004 -54.70791 -207.62341 -58.572853 -205.66183 -61.636536C -203.36615 -65.27622 -200.01862 -67.09607 -195.61131 -67.09607C -192.5979 -67.09607 -190.41069 -66.87042 -189.05836 -66.41121C -186.7128 -65.609955 -185.53548 -64.00743 -185.53548 -61.58627zzM-193.26537 -60.54312C -193.26537 -62.028854 -193.41579 -63.113953 -193.70795 -63.798428C -194.16716 -64.85858 -195.027 -65.3847 -196.29579 -65.3847C -197.99014 -65.3847 -199.25931 -63.99874 -200.08553 -61.227592C -200.67815 -59.290962 -200.9703 -57.195595 -200.9703 -54.94186L-200.9703 -54.94186L-200.9703 -48.55559C -195.83658 -51.627594 -193.26537 -55.61802 -193.26537 -60.54312zzM-160.77655 -45.00813L-168.18895 -34.389923L-168.18895 -34.389923L-171.58675 -34.389923L-171.58675 -34.389923L-165.52628 -45.00813L-165.52628 -45.00813L-171.6117 -55.626335L-171.6117 -55.626335L-168.18895 -55.626335L-168.18895 -55.626335L-160.77655 -45.00813zzM-169.90033 -45.00813L-177.16269 -34.389923L-177.16269 -34.389923L-180.71053 -34.389923L-180.71053 -34.389923L-174.5499 -45.00813L-174.5499 -45.00813L-180.71053 -55.626335L-180.71053 -55.626335L-177.16269 -55.626335L-177.16269 -55.626335L-169.90033 -45.00813zz" stroke="none" fill="#131313" fill-rule="evenodd" />
					</g>
				</g>
				<g>
					<g>
                        <path d="M-211.49199 -122.894005C -214.93742 -120.672966 -217.5148 -120.62247 -215.62173 -117.50447C -215.09412 -116.337074 -206.67587 -116.1809 -201.97272 -115.054634C -199.5018 -114.8956 -197.6488 -116.30038 -195.32338 -116.10464C -189.72354 -115.32065 -187.99782 -115.15901 -182.3743 -115.75455C -180.2964 -117.247826 -175.65677 -118.159096 -174.0448 -120.584206C -173.78815 -123.71053 -173.53151 -126.83711 -173.27487 -129.96344C -171.03769 -132.74124 -171.2381 -132.51349 -170.40518 -135.98314C -169.81693 -141.67174 -169.64046 -147.89577 -170.26514 -155.16171C -170.38176 -159.01138 -170.49863 -162.86105 -170.61523 -166.71072C -171.4086 -168.62384 -172.20169 -170.53722 -172.99506 -172.45035C -173.97504 -173.47693 -174.95477 -174.5035 -175.93475 -175.53008C -176.86789 -176.30002 -177.80128 -177.06995 -178.73442 -177.83987C -179.41168 -178.37607 -180.76466 -178.77223 -181.8144 -178.39975C -182.3277 -178.98306 -182.46826 -179.65955 -183.35428 -180.14967C -187.0056 -182.25125 -187.10086 -182.35666 -189.44373 -179.5898C -192.44537 -176.13498 -195.244 -174.67737 -196.58318 -169.93048C -200.76784 -160.88754 -204.12608 -154.04716 -206.38252 -143.75249C -206.38252 -143.076 -206.38252 -142.39925 -206.38252 -141.72276C -206.74199 -141.82532 -207.32764 -141.67668 -207.78236 -140.81279C -210.6018 -134.46826 -209.85373 -129.12193 -211.49199 -122.894005zzM-178.59595 -119.827805C -179.07045 -123.13399 -179.76334 -123.89507 -180.60329 -122.9445C -181.20715 -121.881226 -181.9115 -120.91789 -183.49353 -120.83252C -184.34727 -121.451225 -188.23053 -119.00009 -188.49602 -122.38879C -186.37231 -128.7656 -189.48174 -128.21405 -195.3882 -123.27819C -197.51892 -122.226105 -197.62955 -121.745094 -199.27925 -122.38879C -196.45383 -128.9163 -196.90047 -130.6946 -201.61353 -126.27958C -201.97585 -121.50875 -204.46394 -120.118805 -207.50542 -119.60968C -204.29683 -123.514015 -203.78485 -125.759 -205.41815 -126.68355C -206.12953 -127.08647 -209.25455 -120.171906 -208.72824 -127.16898C -209.72542 -130.01628 -209.21811 -132.68112 -207.61655 -132.83833C -203.17863 -119.02429 -195.46213 -147.14352 -192.05338 -133.50545C -191.51953 -131.42653 -187.92442 -132.74957 -185.57428 -132.6491C -184.30486 -133.78864 -183.94696 -133.51482 -182.67752 -134.65436C -180.90912 -136.30173 -182.1684 -136.85458 -182.95317 -137.07947C -183.17416 -138.3515 -184.0024 -140.17691 -181.79723 -139.39136C -181.15198 -140.72533 -181.98334 -142.05879 -183.57578 -143.39304C -181.121 -145.58934 -180.172 -146.39233 -181.44142 -149.35103C -180.57492 -148.95644 -179.52621 -148.67168 -178.95149 -149.26227C -177.14119 -151.31439 -177.33745 -153.62186 -177.35098 -156.73204C -177.56546 -159.40884 -177.08939 -160.92659 -176.46158 -165.09094C -176.37256 -162.57135 -176.2838 -160.05202 -176.19478 -157.53242C -176.19478 -155.96132 -176.19478 -154.39047 -176.19478 -152.81938C -176.22446 -152.25612 -176.25412 -151.69286 -176.2838 -151.12958C -176.48761 -148.98221 -176.8593 -146.9681 -178.86273 -145.34937C -180.15872 -143.97087 -177.57275 -141.21858 -178.48193 -137.9051C -179.48978 -137.13438 -179.58556 -135.31471 -180.73004 -134.58955C -181.59602 -133.73529 -183.34595 -133.13011 -180.1077 -131.1212C -182.65697 -128.81427 -182.08667 -126.21086 -181.975 -123.65144C -180.3693 -123.312546 -179.09232 -124.781876 -177.97333 -127.11953C -178.18079 -124.68896 -178.38849 -122.25838 -178.59595 -119.827805zzM-177.1261 -171.0617C -176.5696 -170.538 -176.38089 -169.83444 -176.70468 -169.49008C -177.02875 -169.14598 -177.7427 -169.29147 -178.29895 -169.81491C -178.85545 -170.33862 -179.04442 -171.04243 -178.72037 -171.38681C -178.39656 -171.7309 -177.68259 -171.5854 -177.1261 -171.0617zzM-182.51797 -173.41913C -182.462 -173.39728 -182.40787 -173.3728 -182.35555 -173.34651C -182.06299 -173.63336 -181.52861 -173.8252 -180.91745 -173.8252C -179.99213 -173.8252 -179.24223 -173.38504 -179.24223 -172.84207C -179.24223 -172.29886 -179.99213 -171.8587 -180.91745 -171.8587C -181.09914 -171.8587 -181.27379 -171.87563 -181.43777 -171.90712C -181.44453 -171.77724 -181.4716 -171.64761 -181.5208 -171.52216C -181.80348 -170.80115 -182.70798 -170.48152 -183.54143 -170.80792C -184.3746 -171.13458 -184.821 -171.9839 -184.53859 -172.7049C -184.25592 -173.4259 -183.35141 -173.74554 -182.51797 -173.41913zzM-187.509 -175.01549L-187.50926 -175.02719L-187.50926 -175.02719L-187.509 -175.03891C -187.49677 -175.37859 -186.94887 -175.6649 -186.19324 -175.7659C -186.38013 -176.01135 -186.45457 -176.26279 -186.37805 -176.48065C -186.19455 -177.00253 -185.21533 -177.13345 -184.19084 -176.77295C -183.16609 -176.41272 -182.48439 -175.69771 -182.6679 -175.17609C -182.79076 -174.82704 -183.26942 -174.65291 -183.87953 -174.68362C -184.19162 -174.42645 -184.84312 -174.24973 -185.59615 -174.24973C -186.64302 -174.24973 -187.49365 -174.59148 -187.509 -175.01549zzM-189.09598 -176.95178C -188.47935 -176.76775 -188.0517 -176.37628 -188.14072 -176.07773C -188.22974 -175.77917 -188.80185 -175.68625 -189.41873 -175.87001C -190.03537 -176.05403 -190.46301 -176.44551 -190.374 -176.74406C -190.28497 -177.04262 -189.71286 -177.13553 -189.09598 -176.95178zz" stroke="#131313" stroke-width="0.19833986" fill="#131313" fill-rule="evenodd" />
					</g>
				</g>
				<g>
					<g>
                        <path d="M-279.659 -203.21884C -279.22348 -203.22455 -278.7806 -203.03653 -278.68768 -203.26883C -278.5358 -203.62666 -278.97733 -204.7849 -278.81238 -205.23755C -278.6711 -205.62498 -278.1383 -205.40138 -277.85956 -205.31851C -278.031 -205.9915 -278.0989 -206.5126 -278.0989 -206.5126C -278.5877 -207.86755 -276.37964 -208.02052 -276.38507 -208.20392C -276.42526 -209.55832 -275.8721 -215.0042 -277.23682 -216.49417C -277.4721 -216.73816 -276.9282 -214.20705 -276.94095 -212.46031C -276.94855 -211.41943 -277.2936 -210.62201 -277.3042 -210.67282C -277.77533 -212.91621 -278.6638 -215.10228 -280.7015 -216.61427C -280.08447 -218.90004 -279.56906 -220.80844 -278.95206 -223.09421C -279.86005 -221.00894 -280.7678 -218.92368 -281.67578 -216.83841C -283.37335 -217.12914 -285.17523 -216.9433 -287.27274 -215.07402C -288.7312 -213.99213 -289.85114 -212.06607 -290.38583 -210.16394C -291.21097 -204.08066 -293.9972 -203.06587 -296.4039 -201.07135C -297.08557 -203.92715 -299.70148 -209.22713 -302.98083 -208.89076C -311.07437 -208.06046 -306.82996 -185.50372 -306.6346 -180.02524C -307.6089 -180.22005 -308.58347 -180.41513 -309.55777 -180.60994C -310.32288 -180.89278 -310.53235 -180.34232 -310.65408 -179.65982C -319.6752 -185.80232 -328.69604 -191.94455 -337.71716 -198.08705C -338.66592 -198.82823 -340.677 -199.50801 -340.93268 -199.10999C -341.23453 -198.67825 -339.79617 -197.19997 -338.89713 -196.5987C -329.90836 -190.36273 -321.27438 -184.37238 -312.2856 -178.13641C -311.9384 -176.54863 -311.26566 -175.09967 -310.0202 -173.89769C -308.89972 -173.06955 -307.779 -172.24115 -306.6585 -171.41302C -305.08838 -170.30586 -304.43222 -169.3696 -304.4662 -168.56294C -304.88025 -168.19751 -305.2943 -167.83235 -305.70837 -167.46692C -307.31656 -167.59842 -309.08612 -167.14795 -310.53262 -167.86115C -310.53397 -167.98776 -310.5712 -168.10703 -310.63724 -168.21815C -312.0669 -168.22711 -313.4137 -168.05623 -314.44205 -167.1955C -314.44205 -166.80045 -314.44205 -166.40512 -314.44205 -166.01009C -309.39258 -166.37605 -305.73312 -165.51886 -301.3281 -163.54608C -300.281 -162.49896 -298.59702 -161.13016 -297.5499 -160.08304C -302.5184 -162.59134 -308.20526 -164.53477 -316.51645 -164.40979C -319.3451 -152.05876 -325.08847 -150.199 -331.09702 -149.2959C -330.44168 -149.73088 -330.81717 -151.04834 -331.27496 -152.43724C -326.2831 -152.95781 -321.5564 -154.54016 -318.9465 -164.58748C -319.59967 -164.54564 -319.89935 -164.69453 -320.01346 -164.94313C -328.5265 -163.83163 -333.48386 -161.01033 -335.60175 -156.82323L-335.60175 -156.82323L-336.26767 -157.28838C -336.29077 -157.07889 -336.29483 -156.86615 -336.27692 -156.64961C -338.9819 -156.91045 -341.35056 -156.5597 -342.32892 -153.68079C -347.84625 -149.13695 -344.9622 -139.42491 -346.58588 -129.83757C -347.7998 -122.66996 -347.33954 -115.44231 -347.73297 -110.148315C -347.74246 -108.199165 -347.1893 -105.46944 -344.34302 -105.68788C -343.92215 -100.15669 -345.17767 -94.62523 -348.2682 -89.094315C -343.25677 -87.471756 -339.28403 -95.275406 -339.28403 -95.275406C -339.5321 -86.91232 -339.58453 -88.13334 -342.38028 -84.27688C -335.1836 -86.41459 -331.53036 -93.644684 -330.60416 -104.79562C -330.60416 -104.79562 -328.60718 -105.89274 -328.6417 -105.68788C -329.17694 -102.357155 -329.7122 -99.0267 -330.24744 -95.69599C -330.84216 -91.7708 -331.4369 -87.84534 -332.03165 -83.92014C -332.5215 -80.220726 -331.06903 -79.29642 -329.35516 -78.745964C -327.33295 -78.92447 -325.31097 -79.10271 -323.28876 -79.281204C -322.0047 -79.539314 -315.89047 -81.04125 -316.40967 -83.10234C -317.23727 -84.41381 -318.35748 -85.06642 -319.95612 -84.643394C -321.98486 -88.56724 -322.01288 -93.414825 -322.57526 -98.015724C -322.39676 -100.5137 -322.21826 -103.0114 -322.03976 -105.50938C -319.64883 -108.39614 -318.73132 -111.62959 -319.00653 -115.14426C -315.8266 -121.37832 -311.636 -125.58145 -308.30554 -130.87463C -299.323 -127.962326 -291.1781 -127.72867 -281.8945 -129.77509C -281.75406 -126.22619 -281.97766 -121.90731 -280.82404 -120.49693C -281.76355 -119.23056 -282.17572 -116.68423 -281.53452 -113.460556C -282.06976 -109.35686 -284.03546 -101.94092 -284.5707 -97.83723C -284.92773 -96.588234 -286.46063 -95.10368 -285.64148 -94.09026C -283.84204 -92.89616 -281.6193 -92.408195 -279.39655 -92.484535C -277.8503 -93.01978 -276.30383 -93.55502 -274.7576 -94.09026C -274.87662 -92.66277 -275.62756 -90.69353 -275.11435 -89.80807C -269.6454 -84.7298 -266.74664 -86.53142 -260.96576 -89.22038C -261.01114 -92.3362 -261.51215 -91.9868 -264.2677 -93.06597C -264.64835 -97.58536 -265.15207 -101.826805 -265.5327 -106.3462C -264.96133 -106.96865 -264.21036 -107.00261 -264.24814 -109.62856C -263.28497 -110.90498 -262.21393 -112.191734 -262.53564 -113.33938C -262.04794 -115.27358 -261.69745 -117.39145 -261.96478 -120.33229C -261.96478 -120.33229 -260.76797 -122.0293 -260.252 -125.327415C -258.9256 -127.1111 -257.36063 -128.52554 -256.6844 -131.3213C -256.40372 -131.0151 -255.30145 -133.11531 -254.11551 -135.46005C -253.91281 -135.32909 -253.56424 -136.22215 -252.77034 -136.75577C -252.77034 -136.75577 -248.71255 -133.76004 -248.71255 -133.76004C -253.72426 -135.78119 -254.83904 -129.31021 -254.97162 -128.18158C -256.24615 -124.16728 -256.11816 -123.28454 -261.09482 -119.355C -258.79764 -117.531105 -256.16898 -119.228386 -253.9726 -121.33132C -255.9231 -118.5247 -259.0791 -118.1666 -259.8241 -112.91119C -259.87137 -109.715775 -259.36792 -108.47222 -262.67828 -103.777306C -258.5955 -104.78285 -256.39395 -108.614586 -255.68536 -110.62758C -254.81812 -115.201584 -255.23761 -114.568535 -253.67236 -116.719C -256.32114 -110.369194 -253.29199 -110.134186 -251.97453 -106.3462C -252.1794 -109.95514 -252.92603 -113.34264 -251.20808 -114.41095C -250.09576 -115.10296 -249.80641 -116.08188 -249.5051 -118.14595C -249.08994 -122.5064 -247.74315 -123.12478 -247.74315 -123.12478C -250.09222 -115.95282 -246.75037 -117.91012 -246.26593 -114.48105C -245.85431 -115.88435 -244.94168 -117.23115 -245.03108 -118.690704C -245.21393 -121.67257 -244.70233 -123.96106 -243.12622 -125.18451C -241.89055 -126.01427 -241.51833 -126.907875 -240.83554 -128.31526C -235.55515 -124.60471 -231.70901 -121.902145 -226.4286 -118.1916C -226.1417 -116.47801 -224.92584 -116.343796 -223.62823 -116.34923C -222.80145 -115.44094 -221.97496 -114.532936 -221.1482 -113.62466C -219.62589 -113.14892 -218.10356 -112.67318 -216.58125 -112.19744C -217.58028 -113.57712 -218.57904 -114.95651 -219.57806 -116.33619C -220.7844 -116.753784 -221.99045 -117.17138 -223.19678 -117.588974C -223.45787 -119.040924 -224.6824 -119.627785 -225.74692 -119.573166C -227.79251 -121.00039 -229.23521 -122.615616 -231.28082 -124.04284C -233.75461 -125.99335 -236.69952 -127.661285 -239.17331 -129.61179C -238.22183 -130.46791 -236.79922 -131.60686 -235.84775 -132.46297L-235.84775 -132.46297L-237.60182 -134.14722L-237.60182 -134.14722L-241.19717 -135.50977L-241.19717 -135.50977L-241.61342 -138.38622L-241.61342 -138.38622L-239.94818 -138.12103L-239.94818 -138.12103L-237.45049 -136.83429L-237.45049 -136.83429L-235.52036 -135.13129L-235.52036 -135.13129L-233.56442 -134.49498L-233.56442 -134.49498L-233.56442 -134.60394C -232.70804 -135.79315 -231.85193 -136.98236 -230.99553 -138.17157C -231.86606 -134.36023 -230.21957 -131.94348 -236.16646 -129.4621C -225.93547 -129.31592 -229.18279 -134.12357 -224.2879 -138.45712C -224.2879 -138.98041 -224.2879 -139.5037 -224.2879 -140.02698C -221.91927 -141.0752 -220.53986 -144.57382 -221.00528 -147.02017C -219.89676 -146.98131 -219.20557 -146.95767 -218.3288 -147.53639C -219.86307 -147.98604 -220.5165 -149.23938 -222.0043 -149.87433C -221.19547 -150.01697 -220.07797 -149.49612 -219.34657 -149.94742C -220.56432 -150.45358 -221.52122 -151.66101 -222.68327 -152.31117L-222.68327 -152.31117L-224.47565 -150.2001C -225.3141 -150.15091 -226.15256 -150.10147 -226.99101 -150.05229L-226.99101 -150.05229L-223.18048 -154.13072C -223.26552 -156.97401 -225.17989 -160.92856 -235.27692 -169.85458C -238.71306 -172.22485 -245.58969 -175.00458 -250.44 -175.06517C -253.05643 -176.20683 -252.9866 -177.92911 -256.96967 -177.70387C -260.20447 -177.51369 -262.24655 -174.95322 -266.76865 -172.7495C -267.26096 -177.40366 -270.72293 -178.14647 -272.252 -173.13829C -276.32068 -172.50143 -276.73608 -189.86363 -276.89584 -193.27313C -276.9369 -195.04106 -278.2372 -197.21762 -280.08963 -199.11107C -277.95493 -200.46411 -279.70654 -201.5539 -279.659 -203.21884zzM-276.58585 -135.86107L-276.5592 -136.83075L-276.5592 -136.83075L-276.05142 -137.16249L-276.05142 -137.16249L-276.6334 -139.14288C -276.61002 -139.52109 -276.44836 -139.78055 -276.10522 -139.88434C -277.2966 -141.25696 -275.8368 -141.02628 -275.92075 -143.2061C -276.95374 -145.5253 -274.9342 -144.34206 -274.7212 -146.52785C -273.41867 -147.41792 -274.30823 -149.02637 -272.96793 -150.21884C -273.2062 -150.30823 -273.3828 -150.75409 -273.62082 -150.8432C -273.87433 -150.93802 -274.19058 -150.67746 -274.44434 -150.77255C -274.77933 -150.93993 -274.5571 -151.32465 -274.8918 -151.49173C -275.1839 -151.63763 -276.0343 -151.56781 -276.3264 -151.71344C -276.52008 -151.81017 -276.4049 -152.20195 -276.59888 -152.29868C -276.82303 -152.41061 -277.35718 -152.22885 -277.5816 -152.34106C -277.64465 -152.87006 -277.70685 -153.50528 -277.76608 -154.37117C -277.1246 -154.131 -276.38968 -154.02042 -275.92075 -155.20148C -275.7876 -155.71118 -275.9881 -156.138 -276.47446 -156.49338C -276.77466 -156.99222 -276.65268 -157.9141 -275.92075 -159.44618C -274.049 -159.5247 -272.3675 -160.36424 -270.75363 -161.47601C -270.59985 -159.4459 -270.7123 -156.88382 -270.12302 -154.95042C -269.2802 -155.05801 -268.61755 -155.50523 -267.70844 -156.21652C -264.59344 -155.26343 -262.0762 -154.15192 -261.15732 -152.61792C -262.3354 -149.76375 -263.29312 -148.26779 -264.10983 -147.63528C -266.17065 -149.23476 -268.3127 -150.65247 -270.3735 -152.25195C -270.4102 -151.43251 -270.99487 -150.74648 -271.83063 -150.36284C -269.64673 -148.94812 -267.1243 -146.9278 -264.9404 -145.51306C -265.2787 -144.89795 -265.61722 -144.28256 -265.95547 -143.66745C -266.31302 -142.30951 -266.73306 -141.04965 -267.80084 -140.80702C -267.3172 -139.85364 -267.37643 -138.89972 -267.80084 -137.94661C -266.36218 -136.84543 -264.52634 -136.26102 -262.08 -136.47021C -261.46487 -135.8858 -260.8495 -135.30165 -260.23438 -134.71722C -260.233 -133.53427 -262.18433 -130.14893 -266.16113 -130.80725C -267.05313 -130.99173 -267.83154 -131.85681 -268.7235 -132.04129C -269.1169 -131.1189 -269.7698 -130.4228 -270.6482 -129.99625L-270.6482 -129.99625L-268.95825 -128.95021C -269.14246 -125.20353 -269.32693 -121.45711 -269.51114 -117.71043C -270.37732 -114.974174 -270.5224 -112.59792 -269.87958 -110.616714C -270.893 -106.5016 -271.90643 -102.3865 -272.91986 -98.27139C -274.33838 -95.88427 -275.27164 -95.3762 -275.6838 -96.88954C -276.05225 -99.34622 -276.42093 -101.80317 -276.78934 -104.25984C -276.07697 -106.18453 -276.00714 -109.180534 -276.05225 -112.36698C -274.61197 -114.67476 -273.79742 -117.280876 -274.2096 -120.47438L-274.2096 -120.47438L-272.778 -129.51263C -273.52982 -129.49088 -274.365 -129.59167 -275.2749 -129.8267C -275.42868 -130.19568 -275.58246 -130.56491 -275.73624 -130.93387C -276.3242 -130.8722 -276.56464 -131.29114 -276.65894 -134.16351C -276.47446 -134.40967 -276.2897 -134.65555 -276.10522 -134.9017C -276.28943 -135.22504 -276.48315 -135.54944 -276.58585 -135.86107zzM-315.77063 -168.30183C -319.93466 -168.22876 -325.64435 -165.97476 -329.25275 -164.10251C -325.99402 -165.26373 -323.0097 -166.09947 -320.6063 -166.24727C -319.7032 -167.18869 -318.27078 -167.65276 -316.27954 -167.61037C -316.14233 -167.84375 -315.96518 -168.07333 -315.77063 -168.30183zzM-303.7761 -204.61726C -301.01566 -204.88054 -297.98843 -198.35277 -297.01413 -190.03725C -296.39874 -184.78156 -296.75058 -180.06981 -297.78955 -177.2477L-297.78955 -177.2477L-298.17264 -178.10164C -297.5029 -180.94711 -297.3434 -184.9519 -297.85666 -189.33437C -298.8307 -197.64989 -301.8582 -204.17766 -304.61862 -203.91438C -304.83215 -203.89401 -305.03784 -203.83315 -305.2351 -203.73534C -304.8042 -204.25807 -304.3154 -204.56564 -303.7761 -204.61726zzM-284.4009 -177.75061C -284.69595 -176.63258 -284.85898 -175.71207 -284.39603 -174.29762C -284.22076 -173.36652 -283.37064 -172.19579 -283.37064 -172.19579C -281.56876 -168.88843 -279.76685 -165.58081 -277.96497 -162.27345C -275.2999 -163.45505 -275.0983 -163.17276 -273.74445 -165.97585C -274.87985 -169.3821 -276.015 -172.78809 -277.15042 -176.19434C -278.0432 -178.39317 -279.46964 -180.4192 -282.77808 -179.67448C -283.38858 -179.40442 -283.99417 -178.6214 -284.4009 -177.75061zzM-246.90306 -153.31102C -246.9661 -152.522 -247.0294 -151.73328 -247.09244 -150.94427C -244.70259 -147.68663 -242.76024 -144.52872 -241.50636 -141.52376C -241.04883 -141.6183 -240.59102 -141.71313 -240.13348 -141.80768C -242.38992 -146.82944 -244.64662 -150.56117 -246.90306 -153.31102zzM-266.4888 -172.04553C -266.29156 -171.42932 -266.22635 -171.22528 -266.02908 -170.60909C -261.4771 -168.47708 -255.20555 -162.79266 -251.77376 -157.70026C -252.31606 -159.12993 -253.40067 -160.5979 -253.40067 -161.98898C -259.0006 -166.95015 -263.41238 -170.3659 -266.4888 -172.04553zzM-285.5127 -162.34082L-304.14343 -175.43848C -303.1672 -176.50923 -294.37784 -173.69446 -292.5515 -172.78102C -291.3085 -168.88953 -289.2591 -166.3421 -286.1267 -165.60037L-286.1267 -165.60037L-285.5127 -162.34082zzM-329.14734 -114.070244C -328.77808 -115.86697 -328.12604 -117.5599 -326.0239 -118.72602C -325.79514 -120.35674 -325.22568 -122.14939 -324.2557 -124.20695C -325.04553 -125.83766 -325.53458 -127.41894 -325.55225 -128.92169C -326.79715 -129.60635 -327.98285 -131.11699 -329.14734 -132.9292C -327.83777 -128.23593 -326.7409 -126.270744 -326.5537 -121.40169C -329.08865 -117.44172 -329.53232 -121.774994 -329.14734 -114.070244zz" stroke="#131313" stroke-width="0.2070323" fill="#131313" fill-rule="evenodd" />
					</g>
				</g>
				<g>
					<g>
                        <path d="M-263.19684 -251.07175C -200.3913 -251.07175 -149.47766 -200.15811 -149.47766 -137.35294C -149.47766 -74.54739 -200.3913 -23.633759 -263.19684 -23.633759C -326.002 -23.633759 -376.91565 -74.54739 -376.91565 -137.35294C -376.91565 -200.15811 -326.002 -251.07175 -263.19684 -251.07175zz" stroke="none" fill="none" />
					</g>
				</g>
				<g>
					<g>
                        <path d="M-381.40912 -101.410385C -378.7759 -102.449 -376.11285 -102.245285 -373.40936 -100.80453C -370.84457 -99.4284 -369.0376 -97.40106 -367.98422 -94.73007C -369.40155 -94.17108 -370.53052 -93.08938 -371.37976 -91.48837C -372.1062 -90.02418 -372.83563 -88.552055 -373.5734 -87.08333C -374.65207 -85.37876 -376.18808 -84.13077 -378.19464 -83.33971C -381.33466 -82.10153 -384.10733 -81.83319 -386.5024 -82.538826C -389.16772 -83.308334 -391.10437 -85.215485 -392.304 -88.25725C -393.21524 -90.56881 -393.1457 -92.756775 -392.09875 -94.81397C -391.09756 -96.79596 -389.4225 -98.25032 -387.0784 -99.1748L-387.0784 -99.1748L-385.19507 -94.39936L-385.19507 -94.39936L-386.9295 -93.73416C -390.55557 -92.35464 -391.96875 -90.65121 -391.17126 -88.6284C -390.20596 -86.18078 -386.2987 -86.30437 -379.4521 -89.00409C -378.20898 -89.49429 -376.5358 -90.538574 -374.42795 -92.12598C -372.31973 -93.713 -370.66507 -94.75615 -369.46317 -95.25504C -370.20016 -97.251396 -371.681 -98.21064 -373.90033 -98.13542C -375.2137 -98.0965 -377.08875 -97.596085 -379.5258 -96.63495L-379.5258 -96.63495L-381.40912 -101.410385zzM-377.08118 -135.62683L-376.69983 -130.61328C -379.37537 -130.01045 -383.1235 -129.53725 -387.95865 -129.20503C -393.30292 -128.8456 -397.07074 -128.47067 -399.2689 -128.0859L-399.2689 -128.0859L-398.75488 -121.32585C -396.5998 -121.65996 -393.9889 -121.94682 -390.91537 -122.180405L-390.91537 -122.180405L-386.65585 -122.5043C -383.03885 -122.77946 -379.52466 -122.9348 -376.1193 -122.976746L-376.1193 -122.976746L-375.7183 -117.70619C -379.86404 -117.73719 -385.2291 -117.49983 -391.80243 -117.00018C -395.139 -116.746574 -397.7276 -116.396965 -399.56332 -115.963455L-399.56332 -115.963455L-400.865 -133.07753C -399.1196 -133.3867 -395.6024 -133.73668 -390.3201 -134.13844L-390.3201 -134.13844L-386.22424 -134.44989C -382.63068 -134.72314 -379.58133 -135.11961 -377.08118 -135.62683zzM-386.60104 -168.56503C -383.65906 -168.03967 -381.05496 -166.7894 -378.77707 -164.8112C -376.42242 -162.76535 -374.8879 -160.32452 -374.1717 -157.50009C -375.39325 -156.92673 -376.76447 -155.91533 -378.29102 -154.46739C -379.87085 -152.95218 -381.06934 -151.97556 -381.87665 -151.55414C -383.36768 -150.77252 -385.10815 -150.55974 -387.10413 -150.91615C -390.01132 -151.43546 -392.61465 -152.69215 -394.9262 -154.68245C -397.31033 -156.7627 -398.8403 -159.19672 -399.5142 -161.99017C -398.304 -162.5658 -396.94336 -163.58475 -395.42664 -165.04553C -393.85284 -166.55658 -392.66266 -167.52264 -391.8425 -167.94783C -390.35413 -168.71735 -388.60873 -168.9237 -386.60104 -168.56503zzM-381.39212 -163.96837C -383.55515 -164.35464 -385.52692 -164.2129 -387.30783 -163.54242C -388.79205 -162.99779 -390.4766 -161.92969 -392.3603 -160.34947C -393.43256 -159.4454 -394.01233 -158.96579 -394.1019 -158.89813C -394.7792 -158.37013 -395.41113 -157.96535 -395.99734 -157.6834C -395.17416 -156.55974 -393.94922 -155.85297 -392.3282 -155.56384C -389.93988 -155.13713 -387.89743 -155.20705 -386.20572 -155.78003C -384.61075 -156.31067 -382.8937 -157.42639 -381.0531 -159.1336C -380.06247 -160.04597 -379.54053 -160.53618 -379.48193 -160.59741C -378.86435 -161.1239 -378.27475 -161.52454 -377.715 -161.79362C -378.71622 -162.98456 -379.9385 -163.70871 -381.39212 -163.96837zzM-381.0153 -202.03049C -379.23172 -201.2243 -377.92554 -199.13498 -377.09857 -195.77083C -376.52673 -193.48006 -376.2202 -190.87218 -376.18204 -187.95477C -372.99966 -186.51627 -369.87173 -185.26941 -366.80164 -184.22247L-366.80164 -184.22247L-369.04892 -179.25089C -372.6028 -180.59375 -376.35364 -182.1547 -380.29984 -183.93863C -383.2849 -185.28793 -385.47437 -187.0299 -386.86713 -189.17064C -388.53165 -191.69159 -388.72778 -194.35916 -387.45297 -197.17871C -386.5818 -199.10626 -385.80508 -200.44006 -385.12024 -201.17215C -383.9297 -202.44093 -382.56375 -202.73044 -381.0153 -202.03049zzM-382.5834 -196.78412C -383.5336 -197.21347 -384.27136 -197.43118 -384.7933 -197.4425C -385.6044 -197.45535 -386.18945 -197.05737 -386.55646 -196.24554C -387.0463 -195.16194 -386.5266 -193.94946 -384.99326 -192.61945C -383.92554 -191.68024 -382.6696 -190.88768 -381.2281 -190.23572L-381.2281 -190.23572L-377.14316 -188.3894C -377.62393 -192.56125 -379.4328 -195.35962 -382.5834 -196.78412zzM-358.15558 -237.88573C -357.05914 -235.40144 -355.64636 -233.0226 -353.91116 -230.72957L-353.91116 -230.72957L-353.97656 -230.65436C -353.98676 -230.67854 -354.00565 -230.7103 -354.03323 -230.74997C -354.1886 -230.88416 -355.0027 -231.1166 -356.47256 -231.45108C -357.90347 -231.76817 -358.77466 -231.92616 -359.08157 -231.9205C -360.90668 -231.88081 -362.48163 -231.07426 -363.80255 -229.51294L-363.80255 -229.51294L-363.96017 -229.33115C -361.97705 -227.80762 -359.05472 -225.40875 -355.1924 -222.12547C -351.37247 -218.8558 -348.4505 -216.45694 -346.42432 -214.9111L-346.42432 -214.9111L-350.11124 -210.6546C -351.92615 -212.44383 -354.72186 -214.98897 -358.49915 -218.307C -362.3002 -221.66135 -365.09213 -224.21063 -366.88327 -225.95602L-366.88327 -225.95602L-367.36667 -225.3978C -368.4907 -224.10028 -368.94122 -222.50531 -368.71823 -220.61479C -368.50998 -218.98468 -367.86102 -217.4071 -366.76724 -215.88585L-366.76724 -215.88585L-366.8364 -215.80649C -369.3498 -217.20038 -371.90967 -218.25485 -374.5217 -218.98923L-374.5217 -218.98923L-358.15558 -237.88573zzM-313.9366 -239.33932L-318.51892 -236.70462C -320.6143 -239.96068 -323.52527 -244.8238 -327.2436 -251.29057C -327.25757 -251.12692 -327.55237 -248.79457 -328.128 -244.29315C -328.53503 -241.09833 -328.54788 -238.88692 -328.1586 -237.65744C -328.12646 -237.55464 -327.88232 -237.10677 -327.41818 -236.29907C -326.81348 -235.24724 -326.20157 -234.03099 -325.59003 -232.63861L-325.59003 -232.63861L-330.17233 -230.00352C -331.93207 -233.75734 -334.44885 -238.47533 -337.7144 -244.15483C -339.39664 -247.08055 -340.85593 -249.27684 -342.08994 -250.73007L-342.08994 -250.73007L-337.6093 -253.30658C -336.33105 -251.63527 -334.97498 -249.58261 -333.53384 -247.1467C -333.96167 -247.86708 -332.73978 -245.7309 -329.86847 -240.737C -329.83105 -241.17769 -329.53964 -243.38644 -328.98935 -247.36667C -328.6231 -250.04446 -328.52142 -252.26607 -328.67374 -254.02393C -329.36993 -255.34071 -329.92062 -256.49762 -330.33484 -257.48938L-330.33484 -257.48938L-325.88483 -260.0481C -325.26236 -258.3307 -324.19803 -256.15106 -322.6794 -253.50954C -319.4135 -247.83003 -316.49762 -243.11168 -313.9366 -239.33932zzM-284.3463 -254.01448C -283.8595 -252.30122 -284.1596 -250.95457 -285.2519 -249.97455C -286.00174 -249.31123 -287.33517 -248.70726 -289.2514 -248.16301L-289.2514 -248.16301L-300.977 -244.83363C -301.76807 -248.71483 -302.818 -252.94865 -304.1223 -257.54343C -306.18216 -264.79822 -304.60873 -269.16812 -299.40018 -270.64703C -297.5739 -271.1656 -295.97137 -271.40106 -294.6047 -271.3504C -292.52673 -271.28278 -291.2859 -270.53857 -290.88263 -269.11786C -290.08893 -266.32214 -291.83356 -263.28604 -296.11273 -260.01257L-296.11273 -260.01257L-296.0791 -259.89392L-296.0791 -259.89392L-296.0209 -259.94684C -295.18713 -259.88522 -293.91382 -259.69208 -292.2202 -259.36932C -290.40414 -259.0016 -289.18262 -258.6905 -288.5586 -258.4229C -286.3079 -257.4478 -284.90305 -255.97643 -284.3463 -254.01448zzM-296.0379 -267.0448C -296.3293 -268.07092 -296.63998 -268.75616 -296.9639 -269.1031C -297.45938 -269.6266 -298.162 -269.7619 -299.07513 -269.50223C -299.90363 -269.26715 -300.4373 -268.464 -300.6735 -267.0871C -300.86737 -265.9234 -300.8326 -264.8795 -300.56995 -263.95502L-300.56995 -263.95502L-299.38882 -259.7949L-299.38882 -259.7949L-299.1409 -259.86517C -297.72055 -260.26846 -296.7273 -261.2326 -296.16263 -262.7637C -295.66486 -264.14172 -295.61877 -265.56775 -296.0379 -267.0448zzM-290.39282 -252.80351C -290.91135 -254.63016 -291.99948 -256.1242 -293.66135 -257.27887C -295.40747 -258.49435 -297.185 -258.85492 -298.98065 -258.35718C -297.8827 -254.49033 -296.95444 -250.85518 -296.18643 -247.44264L-296.18643 -247.44264L-293.2607 -248.273C -290.69592 -249.00131 -289.7412 -250.50934 -290.39282 -252.80351zzM-251.96446 -250.7879L-257.026 -250.9164C -257.3329 -253.38594 -257.41754 -257.20404 -257.2868 -262.37708C -258.93427 -263.29208 -261.1729 -263.7823 -263.99622 -263.85373C -264.11108 -259.31982 -264.32996 -255.0754 -264.64703 -251.10916L-264.64703 -251.10916L-270.0015 -251.24484C -269.55136 -255.36604 -269.24597 -260.71594 -269.07965 -267.2829C -268.9954 -270.61606 -269.08194 -273.21524 -269.3276 -275.0736L-269.3276 -275.0736L-264.19614 -274.9436C -263.92892 -273.0028 -263.84805 -269.70593 -263.96597 -265.05487C -261.21826 -264.98532 -258.9857 -264.49475 -257.25616 -263.57782L-257.25616 -263.57782L-257.1802 -266.58292C -257.09933 -269.78116 -257.15906 -272.50885 -257.36578 -274.7705L-257.36578 -274.7705L-252.11678 -274.63785C -251.96597 -272.48276 -251.9278 -269.8265 -252.00754 -266.68082C -252.02568 -265.96005 -252.05933 -264.87646 -252.1077 -263.43005C -252.15608 -261.97757 -252.18935 -260.89362 -252.20747 -260.17322C -252.30235 -256.43 -252.22336 -253.30354 -251.96446 -250.7879zzM-214.08301 -240.78386L-219.08975 -242.47784C -218.02544 -246.29971 -216.83714 -250.16011 -215.52074 -254.05115C -213.86795 -258.9358 -212.49107 -262.62122 -211.38329 -265.1104L-211.38329 -265.1104L-206.42078 -263.43155C -207.3494 -261.69183 -208.36874 -259.1724 -209.48409 -255.87552C -211.49176 -249.94128 -213.02625 -244.91148 -214.08301 -240.78386zzM-219.30215 -247.59155C -219.9632 -245.63753 -221.17982 -244.60156 -222.96678 -244.47609C -224.07683 -244.39407 -225.7727 -244.73877 -228.05441 -245.51093L-228.05441 -245.51093L-237.67935 -248.76698C -236.02846 -252.56995 -234.4679 -256.6507 -232.99765 -260.99716L-232.99765 -260.99716L-232.2202 -263.29474C -231.10109 -266.60333 -230.36635 -269.3057 -230.0175 -271.41467L-230.0175 -271.41467L-225.01076 -269.7207C -225.87665 -266.33914 -226.8117 -263.1541 -227.82008 -260.17322C -225.70921 -259.40936 -223.63954 -257.68213 -221.6005 -254.98808C -219.39136 -252.06311 -218.62411 -249.59508 -219.30215 -247.59155zzM-225.1249 -249.56145C -223.95287 -253.025 -224.97107 -256.2153 -228.17497 -259.12402C -229.41806 -255.44957 -230.76886 -251.8046 -232.22096 -248.18834L-232.22096 -248.18834L-229.37346 -247.22493C -228.21353 -246.83263 -227.30342 -246.83414 -226.63821 -247.22758C -226.03085 -247.5976 -225.52477 -248.37921 -225.1249 -249.56145zzM-171.80219 -248.29265C -174.7128 -246.42897 -176.99149 -246.14777 -178.64993 -247.45096C -180.28534 -248.73637 -180.54385 -250.9969 -179.42587 -254.24011L-179.42587 -254.24011L-178.2667 -254.2454C -178.26329 -252.89348 -177.57013 -251.67041 -176.18758 -250.5838C -174.69012 -249.40724 -173.32874 -249.0153 -172.09737 -249.39665L-172.09737 -249.39665L-171.80219 -248.29265zzM-186.8258 -221.93234L-190.9814 -225.19861C -188.74393 -228.35904 -185.32042 -232.87558 -180.7109 -238.74065C -180.86777 -238.69266 -183.14153 -238.09473 -187.53221 -236.94688C -190.64767 -236.13089 -192.70374 -235.31677 -193.6985 -234.49663C -193.78203 -234.4282 -194.10631 -234.03438 -194.68231 -233.30191C -195.4318 -232.34834 -196.3317 -231.32635 -197.39488 -230.23898L-197.39488 -230.23898L-201.55048 -233.50525C -198.72603 -236.53984 -195.29007 -240.63646 -191.24144 -245.78758C -189.15588 -248.4412 -187.66373 -250.61517 -186.77667 -252.30273L-186.77667 -252.30273L-182.71294 -249.10902C -183.78555 -247.29901 -185.18323 -245.27432 -186.90442 -243.02739C -186.39607 -243.69334 -187.92111 -241.76163 -191.48068 -237.233C -191.05812 -237.36264 -188.90039 -237.91785 -185.00256 -238.8941C -182.38184 -239.55438 -180.28307 -240.29025 -178.70966 -241.08812C -177.74814 -242.22575 -176.88036 -243.16875 -176.11539 -243.9239L-176.11539 -243.9239L-172.0796 -240.75174C -173.43987 -239.53284 -175.0643 -237.73152 -176.94727 -235.33568C -180.99551 -230.18456 -184.28294 -225.71753 -186.8258 -221.93234zzM-156.7506 -178.95987L-159.46733 -184.26405C -157.45435 -185.30833 -155.64131 -186.73096 -154.01837 -188.5368C -152.04811 -190.74405 -151.1792 -192.77554 -151.41466 -194.6366C -155.73352 -192.4248 -159.315 -190.7157 -162.1523 -189.50589L-162.1523 -189.50589L-164.56175 -194.21063C -160.72704 -195.78632 -155.71048 -198.16478 -149.51393 -201.33844C -146.67136 -202.79431 -144.58958 -204.05139 -143.28188 -205.10965L-143.28188 -205.10965L-140.87242 -200.4049C -143.16245 -198.98871 -146.06323 -197.3775 -149.57895 -195.57732L-149.57895 -195.57732L-149.54681 -195.51457C -146.28773 -195.88686 -143.94594 -196.03275 -142.51689 -195.9549C -139.44377 -195.77762 -137.48483 -194.8713 -136.64616 -193.23363C -136.08792 -192.14398 -135.82486 -190.97498 -135.85738 -189.73984L-135.85738 -189.73984L-141.25642 -188.36407C -141.28703 -189.42764 -141.5622 -190.46588 -142.07771 -191.47237C -143.16774 -193.60025 -145.57416 -194.48126 -149.28679 -194.10709C -148.92206 -190.79773 -149.3363 -187.85347 -150.53026 -185.27356C -151.81642 -182.52736 -153.88722 -180.42633 -156.7506 -178.95987zzM-149.91495 -149.78192L-150.84735 -155.00296C -148.79431 -156.33977 -145.69586 -157.75595 -141.5482 -159.26474C -137.0842 -160.90091 -133.94077 -162.23016 -132.12584 -163.26878C -136.7365 -164.71936 -141.1283 -165.07803 -145.31073 -164.33083C -147.80219 -163.88597 -150.05101 -163.0439 -152.06096 -161.79816L-152.06096 -161.79816L-153.01491 -167.14015C -152.2061 -167.61183 -151.36288 -167.92288 -150.49738 -168.07747C -147.29573 -168.64932 -143.93347 -168.48793 -140.41057 -167.59332C -138.18443 -167.02638 -134.99942 -165.857 -130.8665 -164.08327C -129.9938 -164.53038 -129.19293 -165.0429 -128.45555 -165.61473L-128.45555 -165.61473L-127.478165 -160.14009C -129.73114 -158.69026 -133.48004 -156.98494 -138.72565 -155.02449C -143.82915 -153.13663 -147.55879 -151.38708 -149.91495 -149.78192zzM-127.25252 -115.646355L-132.57448 -117.30216C -132.05971 -118.044846 -131.7683 -118.86311 -131.70102 -119.7513C -131.54568 -121.7964 -133.66751 -123.56786 -138.0786 -125.07211C -141.27419 -126.16743 -144.3511 -126.82431 -147.30783 -127.04881C -152.3501 -127.43205 -156.76344 -126.973976 -160.54675 -125.68062L-160.54675 -125.68062L-161.77623 -130.29921C -157.59268 -129.98135 -153.60793 -129.51987 -149.82272 -128.90909L-149.82272 -128.90909L-149.43117 -134.06248C -141.92842 -133.49252 -133.85762 -134.52472 -125.21799 -137.16547L-125.21799 -137.16547L-125.67305 -131.17606C -134.0413 -129.39665 -141.68163 -128.77266 -148.58871 -129.29726L-148.58871 -129.29726L-148.63255 -128.71898C -143.69951 -127.897316 -139.34663 -126.86702 -135.57277 -125.6398C -129.0871 -123.519485 -125.93573 -121.21738 -126.12358 -118.74557C -126.20711 -117.64686 -126.585434 -116.61202 -127.25252 -115.646355zzM-155.61107 -87.17819C -157.52994 -87.93448 -158.54323 -89.10273 -158.66191 -90.68673C -158.7254 -91.70721 -158.32968 -93.30216 -157.47853 -95.46103L-157.47853 -95.46103L-153.26474 -106.14575C -149.43079 -104.28736 -144.31558 -102.09977 -137.92667 -99.58034C -135.12453 -98.47558 -132.82619 -97.73933 -131.02336 -97.374985L-131.02336 -97.374985L-137.37825 -81.26021C -139.20338 -83.19608 -141.33125 -84.9736 -143.76414 -86.58217L-143.76414 -86.58217L-143.72559 -86.68005C -143.7082 -86.66078 -143.67947 -86.63697 -143.64017 -86.60862C -143.42776 -86.52472 -142.55545 -86.62827 -141.02133 -86.923836C -139.21587 -87.27042 -138.22449 -87.45221 -138.06007 -87.46922C -136.54146 -88.237595 -135.22165 -90.03514 -134.10367 -92.87016C -135.95186 -93.39098 -138.6977 -94.36648 -142.33926 -95.80232C -143.22934 -93.60869 -145.07979 -91.472496 -147.89554 -89.395645C -150.98492 -87.105255 -153.56143 -86.36975 -155.61107 -87.17819zzM-153.35582 -92.89662C -149.42021 -91.34475 -146.08931 -92.44383 -143.36389 -96.20673C -147.34335 -97.77599 -150.92143 -99.29423 -154.09964 -100.755394L-154.09964 -100.755394L-155.21535 -97.92604C -155.70972 -96.67237 -155.83633 -95.663994 -155.5952 -94.9009C -155.32799 -94.045975 -154.58229 -93.3804 -153.35582 -92.89662zz" stroke="none" fill="#131313" fill-rule="evenodd" />
					</g>
				</g>
				<g>
					<g>
                        <path d="M225.18973 -60.019653C 315.28986 -60.019653 388.33057 13.021065 388.33057 103.1212C 388.33057 193.22134 315.28986 266.26205 225.18973 266.26205C 135.08958 266.26205 62.048874 193.22134 62.048874 103.1212C 62.048874 13.021065 135.08958 -60.019653 225.18973 -60.019653zzM225.18973 -47.538147C 308.39648 -47.538147 375.8491 19.914436 375.8491 103.1212C 375.8491 186.32797 308.39648 253.78055 225.18973 253.78055C 141.98297 253.78055 74.530365 186.32797 74.530365 103.1212C 74.530365 19.914436 141.98297 -47.538147 225.18973 -47.538147zz" stroke="#131313" stroke-width="0.19933416" fill="#131313" fill-rule="evenodd" />
					</g>
				</g>
				<g>
					<g>
                        <path d="M142.4092 205.49329L138.86967 205.49329L138.86967 205.49329L131.55742 194.87508L131.55742 194.87508L138.86967 184.25688L138.86967 184.25688L142.4092 184.25688L142.4092 184.25688L136.24857 194.87508L136.24857 194.87508L142.4092 205.49329zzM133.2684 205.49329L129.8211 205.49329L129.8211 205.49329L122.40831 194.87508L122.40831 194.87508L129.8211 184.25688L129.8211 184.25688L133.2684 184.25688L133.2684 184.25688L127.224945 194.87508L127.224945 194.87508L133.2684 205.49329zzM174.68106 201.08598C 174.68106 203.62355 173.74602 205.35155 171.86797 206.2696C 170.58255 206.88756 168.52045 207.19633 165.68239 207.19633L165.68239 207.19633L148.31924 207.19633C 148.74481 201.57013 148.95383 195.35924 148.95383 188.55609C 148.95383 177.81277 152.81046 172.43678 160.52333 172.43678C 163.22797 172.43678 165.51534 172.73726 167.36844 173.3382C 170.19023 174.23962 171.60075 175.74236 171.60075 177.84604C 171.60075 181.98651 168.02797 185.46745 160.8907 188.28888L160.8907 188.28888L160.8907 188.46425L160.8907 188.46425L160.99086 188.41397C 162.1096 188.8233 163.77902 189.58261 165.97455 190.68472C 168.32013 191.89493 169.87276 192.79672 170.62413 193.40598C 173.32875 195.61813 174.68106 198.18103 174.68106 201.08598zzM163.72913 178.68094C 163.72913 177.16158 163.57039 176.10141 163.2616 175.50047C 162.78577 174.59036 161.87566 174.13115 160.52333 174.13115C 159.29651 174.13115 158.25298 175.02463 157.39313 176.81915C 156.6754 178.33852 156.31635 179.78267 156.31635 181.15161L156.31635 181.15161L156.31635 187.31224L156.31635 187.31224L156.68372 187.31224C 158.78702 187.31224 160.52333 186.3772 161.89265 184.49915C 163.11118 182.8044 163.72913 180.86777 163.72913 178.68094zzM165.92429 200.39319C 165.92429 197.68819 165.01456 195.2175 163.18639 192.98872C 161.26639 190.64276 158.9707 189.4575 156.31635 189.44087C 156.31635 195.16724 156.17424 200.50998 155.89908 205.48497L155.89908 205.48497L160.23117 205.48497C 164.0296 205.48497 165.92429 203.7906 165.92429 200.39319zzM214.4829 207.19633L206.95332 207.19633C 206.64453 201.55351 206.4858 195.80182 206.4858 189.94998C 206.4858 182.6041 206.66116 177.00282 207.02022 173.13788L207.02022 173.13788L214.4829 173.13788C 214.02368 175.90941 213.79843 179.77435 213.79843 184.73273C 213.79843 193.65656 214.02368 201.14418 214.4829 207.19633zzM204.33221 200.39319C 204.33221 203.33139 203.16359 205.28465 200.80933 206.2696C 199.34854 206.88756 196.9028 207.19633 193.47174 207.19633L193.47174 207.19633L178.99692 207.19633C 179.48938 201.31123 179.73166 195.0924 179.73166 188.55609L179.73166 188.55609L179.73166 185.1001C 179.73166 180.12473 179.48938 176.14299 178.99692 173.13788L178.99692 173.13788L186.52649 173.13788C 186.90218 178.09625 187.09418 182.82103 187.09418 187.30392C 190.29128 187.37083 193.87238 188.75641 197.85449 191.46103C 202.16995 194.39923 204.33221 197.3794 204.33221 200.39319zzM195.57544 200.39319C 195.57544 195.18425 192.7457 191.34425 187.09418 188.8815C 187.09418 194.40755 186.93542 199.94229 186.62665 205.48497L186.62665 205.48497L190.90923 205.48497C 192.65385 205.48497 193.88069 205.06772 194.5988 204.23282C 195.25002 203.4565 195.57544 202.17108 195.57544 200.39319zzM246.46262 200.39319C 246.46262 203.33139 245.4444 205.28465 243.40724 206.2696C 242.08856 206.88756 239.76794 207.19633 236.46236 207.19633L236.46236 207.19633L220.10078 207.19633C 220.56 201.14418 220.78525 193.22229 220.78525 183.439C 220.78525 179.14809 220.56 175.7174 220.10078 173.13788L220.10078 173.13788L244.77657 173.13788C 243.16534 176.56894 241.92151 180.31671 241.06168 184.38235L241.06168 184.38235L240.91162 184.38235C 240.92825 184.34872 240.94489 184.29883 240.96152 184.23193C 240.96152 183.90651 240.36888 182.8044 239.17531 180.92636C 237.77272 178.7142 237.01303 177.4953 236.90457 177.28667C 235.09305 175.67546 232.02142 174.86589 227.68063 174.86589C 227.95578 177.58714 228.09789 181.73593 228.09789 187.31224C 231.47037 187.3455 235.2684 188.6812 239.4924 191.32762C 244.14198 194.22424 246.46262 197.25429 246.46262 200.39319zzM237.70583 200.39319C 237.70583 194.36598 234.50873 190.52599 228.09789 188.8815C 228.09789 194.97523 227.95578 200.50998 227.68063 205.48497L227.68063 205.48497L232.01273 205.48497C 233.93272 205.48497 235.3353 205.1263 236.2201 204.40819C 237.21335 203.60692 237.70583 202.27124 237.70583 200.39319zzM275.13675 188.2972C 275.13675 192.55446 274.03464 196.51956 271.83118 200.2095C 269.55212 204.02419 266.51376 206.7874 262.73196 208.49838C 261.62192 206.92912 259.86066 205.2597 257.44818 203.48183C 254.92686 201.64497 253.25745 200.2095 252.46451 199.1826C 250.99539 197.28755 250.26065 194.9004 250.26065 192.01208C 250.26065 187.80472 251.3711 183.83961 253.58325 180.09978C 255.90387 176.23483 258.93393 173.48032 262.68207 171.83585C 263.7921 173.38846 265.56207 175.04126 267.99118 176.80252C 270.5038 178.63068 272.15662 180.0582 272.95786 181.10173C 274.41034 182.9964 275.13675 185.39224 275.13675 188.2972zzM269.9947 196.75351C 269.9947 193.62292 269.30154 190.89334 267.91595 188.5644C 266.78058 186.61946 264.8606 184.5241 262.17297 182.27867C 260.63696 181.00157 259.81873 180.30841 259.7019 180.19994C 258.79218 179.38205 258.06577 178.59741 257.523 177.84604C 256.15408 179.28189 255.4696 181.17656 255.4696 183.52252C 255.4696 186.97813 256.07886 189.82487 257.3061 192.05367C 258.44977 194.15735 260.44498 196.28598 263.29965 198.43956C 264.82733 199.59987 265.6456 200.2095 265.74576 200.27603C 266.63885 201.01077 267.34827 201.73682 267.8661 202.45493C 269.2849 200.75186 269.9947 198.8572 269.9947 196.75351zzM302.8509 178.29694C 302.8509 181.08472 300.90558 184.00667 297.024 187.05334C 294.38626 189.14041 291.18085 191.06873 287.41608 192.82999C 287.41608 197.80534 287.633 202.59665 288.0756 207.19633L288.0756 207.19633L280.30374 207.19633C 279.9613 201.7954 279.78632 196.01045 279.78632 189.8415C 279.78632 185.17531 280.76294 181.31036 282.72455 178.24667C 285.0202 174.607 288.36774 172.78714 292.77505 172.78714C 295.78845 172.78714 297.97568 173.01279 299.328 173.472C 301.67358 174.27325 302.8509 175.87578 302.8509 178.29694zzM295.121 179.34009C 295.121 177.85435 294.97058 176.76926 294.6784 176.08478C 294.2192 175.02463 293.35938 174.49852 292.09058 174.49852C 290.39624 174.49852 289.12708 175.88446 288.30084 178.65561C 287.70822 180.59225 287.41608 182.68762 287.41608 184.94135L287.41608 184.94135L287.41608 191.32762C 292.5498 188.25562 295.121 184.2652 295.121 179.34009zzM327.6098 194.87508L320.19742 205.49329L320.19742 205.49329L316.79962 205.49329L316.79962 205.49329L322.8601 194.87508L322.8601 194.87508L316.77466 184.25688L316.77466 184.25688L320.19742 184.25688L320.19742 184.25688L327.6098 194.87508zzM318.48602 194.87508L311.2237 205.49329L311.2237 205.49329L307.67584 205.49329L307.67584 205.49329L313.8365 194.87508L313.8365 194.87508L307.67584 184.25688L307.67584 184.25688L311.2237 184.25688L311.2237 184.25688L318.48602 194.87508zz" stroke="none" fill="#131313" fill-rule="evenodd" />
					</g>
				</g>
				<g>
					<g>
                        <path d="M276.8944 116.65662C 273.44897 118.877655 270.87158 118.928154 272.76468 122.04615C 273.29227 123.21355 281.71054 123.36972 286.4137 124.49599C 288.8846 124.65502 290.7376 123.250244 293.06302 123.445984C 298.66287 124.22997 300.38858 124.39161 306.01212 123.796074C 308.09 122.302795 312.72964 121.391525 314.3416 118.966415C 314.59824 115.84009 314.8549 112.71351 315.11154 109.58718C 317.34872 106.80938 317.1483 107.03713 317.9812 103.56749C 318.56946 97.878876 318.74594 91.65486 318.12125 84.38891C 318.00464 80.53924 317.88776 76.689575 317.77118 72.839905C 316.9778 70.92678 316.1847 69.0134 315.39136 67.10028C 314.41135 66.0737 313.43164 65.04712 312.45166 64.02055C 311.51852 63.25061 310.5851 62.48068 309.65198 61.710743C 308.9747 61.174553 307.62173 60.77839 306.572 61.150864C 306.05872 60.56756 305.91815 59.891068 305.03214 59.400944C 301.3808 57.299374 301.28552 57.193962 298.94266 59.960823C 295.941 63.415634 293.1424 64.873245 291.80322 69.62013C 287.61856 78.66308 284.2603 85.50346 282.00388 95.798134C 282.00388 96.474625 282.00388 97.151375 282.00388 97.827866C 281.6444 97.72531 281.05878 97.87393 280.60403 98.73783C 277.7846 105.08237 278.53265 110.428696 276.8944 116.65662zzM309.79047 119.72282C 309.31595 116.41663 308.62305 115.65555 307.7831 116.60612C 307.17923 117.669395 306.4749 118.63273 304.89285 118.7181C 304.03912 118.099396 300.15588 120.55053 299.89038 117.161835C 302.01407 110.78503 298.90466 111.33658 292.9982 116.27243C 290.8675 117.32452 290.75687 117.80553 289.10715 117.161835C 291.9326 110.63432 291.48593 108.856026 286.7729 113.27104C 286.41055 118.04187 283.92245 119.431816 280.88098 119.94093C 284.08957 116.036606 284.60156 113.79162 282.96823 112.86707C 282.25687 112.46415 279.13184 119.378716 279.65814 112.38164C 278.66098 109.53434 279.1683 106.86951 280.76984 106.712296C 285.20776 120.52633 292.9243 92.4071 296.333 106.04517C 296.86688 108.1241 300.46198 106.80105 302.81213 106.90152C 304.08154 105.76198 304.43945 106.035805 305.70886 104.896255C 307.47726 103.24889 306.218 102.69604 305.43323 102.47115C 305.21225 101.19912 304.384 99.37372 306.58917 100.15927C 307.23444 98.82529 306.40308 97.49183 304.8106 96.15759C 307.2654 93.96127 308.21442 93.15829 306.94498 90.199585C 307.8115 90.594185 308.8602 90.87894 309.4349 90.288345C 311.2452 88.23623 311.04895 85.92877 311.0354 82.81859C 310.82092 80.14178 311.297 78.62404 311.92484 74.45968C 312.01385 76.97927 312.1026 79.498604 312.19162 82.0182C 312.19162 83.589294 312.19162 85.16014 312.19162 86.73125C 312.16196 87.29451 312.13226 87.85777 312.1026 88.421036C 311.8988 90.56841 311.5271 92.58253 309.52365 94.20126C 308.2277 95.57975 310.81366 98.33205 309.90448 101.645515C 308.89664 102.41623 308.80084 104.23591 307.65634 104.961075C 306.79037 105.81534 305.04047 106.42051 308.2787 108.42941C 305.72943 110.73635 306.2997 113.33976 306.41138 115.89918C 308.01712 116.238075 309.2941 114.768745 310.41306 112.43109C 310.20563 114.861664 309.9979 117.292244 309.79047 119.72282zzM311.2603 68.48892C 311.8168 69.01262 312.00552 69.71618 311.6817 70.06055C 311.35767 70.40464 310.64368 70.25914 310.08743 69.7357C 309.53094 69.212 309.34198 68.50818 309.66605 68.16382C 309.98984 67.81972 310.7038 67.96522 311.2603 68.48892zzM305.86844 66.131485C 305.92438 66.15335 305.97852 66.17782 306.03085 66.2041C 306.32343 65.91727 306.8578 65.72543 307.46893 65.72543C 308.39426 65.72543 309.14417 66.16559 309.14417 66.70854C 309.14417 67.25177 308.39426 67.69191 307.46893 67.69191C 307.28726 67.69191 307.1126 67.674995 306.94864 67.6435C 306.94186 67.773384 306.9148 67.903015 306.8656 68.028465C 306.58292 68.749466 305.6784 69.0691 304.84497 68.74271C 304.01178 68.41604 303.5654 67.56671 303.8478 66.84572C 304.1305 66.12472 305.03497 65.805084 305.86844 66.131485zzM300.87738 64.53513L300.87714 64.52342L300.87714 64.52342L300.87738 64.51171C 300.88962 64.17203 301.43753 63.885715 302.19315 63.78472C 302.00626 63.539272 301.93182 63.287834 302.00836 63.069973C 302.19186 62.54809 303.17105 62.417168 304.19556 62.777668C 305.2203 63.13791 305.902 63.852917 305.7185 64.37454C 305.59564 64.72359 305.11697 64.89772 304.50687 64.867004C 304.19476 65.12417 303.54327 65.3009 302.79025 65.3009C 301.74338 65.3009 300.89276 64.959145 300.87738 64.53513zzM299.2904 62.598846C 299.90704 62.782875 300.3347 63.174347 300.24567 63.472897C 300.15665 63.77145 299.58453 63.864372 298.96765 63.68061C 298.35104 63.496586 297.92337 63.10511 298.0124 62.80656C 298.1014 62.508007 298.67352 62.415085 299.2904 62.598846zz" stroke="#131313" stroke-width="0.19833986" fill="#131313" fill-rule="evenodd" />
					</g>
				</g>
				<g>
					<g>
                        <path d="M208.72739 36.33176C 209.16292 36.326054 209.60577 36.51407 209.6987 36.28177C 209.85057 35.923946 209.40907 34.765705 209.57399 34.31306C 209.71527 33.92562 210.24806 34.149227 210.52682 34.232094C 210.3554 33.559105 210.28746 33.03799 210.28746 33.03799C 209.79869 31.683043 212.00676 31.530079 212.00133 31.346684C 211.9611 29.99228 212.51428 24.546406 211.14955 23.056425C 210.91426 22.812443 211.4582 25.343561 211.44543 27.090294C 211.43782 28.13116 211.09277 28.928589 211.08217 28.877783C 210.61105 26.634388 209.72261 24.448322 207.68489 22.936337C 208.30191 20.650558 208.81732 18.742165 209.43434 16.456387C 208.52634 18.541653 207.61859 20.626919 206.71059 22.712185C 205.01303 22.42147 203.21115 22.607311 201.11365 24.47658C 199.65518 25.558472 198.53526 27.484526 198.00056 29.38667C 197.17542 35.46994 194.38918 36.484726 191.9825 38.479244C 191.30081 35.623447 188.68492 30.323477 185.40555 30.659836C 177.312 31.490139 181.55643 54.04688 181.75179 59.525356C 180.77748 59.33055 179.8029 59.13547 178.82861 58.940666C 178.0635 58.65783 177.85403 59.208286 177.73232 59.89079C 168.7112 53.748283 159.69034 47.606056 150.66922 41.463554C 149.72046 40.722366 147.70937 40.042583 147.4537 40.440617C 147.15186 40.872345 148.59021 42.35064 149.48924 42.951904C 158.47803 49.18787 167.112 55.178223 176.10078 61.414185C 176.448 63.001976 177.12073 64.45093 178.36618 65.652916C 179.48665 66.48105 180.60739 67.30945 181.72787 68.13757C 183.298 69.244736 183.95415 70.181 183.9202 70.98766C 183.50612 71.353096 183.09206 71.718254 182.678 72.08369C 181.06982 71.95218 179.30028 72.40266 177.85376 71.68945C 177.8524 71.56284 177.81519 71.44357 177.74916 71.33244C 176.31949 71.32349 174.9727 71.49438 173.94434 72.35511C 173.94434 72.75015 173.94434 73.14548 173.94434 73.54052C 178.9938 73.174545 182.65327 74.031746 187.05827 76.00453C 188.1054 77.05165 189.78937 78.42045 190.83649 79.46757C 185.86798 76.959274 180.1811 75.01582 171.86993 75.14081C 169.0413 87.49184 163.29793 89.35159 157.28937 90.254715C 157.9447 89.819725 157.56921 88.50227 157.1114 87.11336C 162.10327 86.59279 166.82997 85.01044 169.43988 74.96312C 168.78673 75.00496 168.48705 74.85607 168.37292 74.60747C 159.8599 75.71898 154.90253 78.54027 152.78465 82.72737L152.78465 82.72737L152.11873 82.26223C 152.09563 82.47171 152.09155 82.68445 152.10948 82.900986C 149.40448 82.64016 147.03583 82.99092 146.05746 85.86981C 140.54013 90.41365 143.4242 100.125694 141.80052 109.71303C 140.58658 116.880646 141.04684 124.10829 140.65343 129.40228C 140.64392 131.35144 141.19708 134.08116 144.04337 133.86272C 144.46423 139.3939 143.20872 144.92537 140.1182 150.45628C 145.12961 152.07884 149.10236 144.27519 149.10236 144.27519C 148.8543 152.63828 148.80185 151.41727 146.0061 155.27373C 153.20279 153.13602 156.85602 145.90591 157.78223 134.75497C 157.78223 134.75497 159.77919 133.65787 159.74469 133.86272C 159.20944 137.19345 158.6742 140.5239 158.13896 143.85461C 157.54422 147.7798 156.94948 151.70526 156.35474 155.63046C 155.86487 159.32988 157.31735 160.25418 159.03122 160.80464C 161.05344 160.62613 163.07541 160.44789 165.09764 160.2694C 166.38167 160.01129 172.49591 158.50935 171.97672 156.44826C 171.14912 155.1368 170.02892 154.48418 168.43027 154.90721C 166.4015 150.98337 166.37352 146.13577 165.81111 141.53488C 165.98962 139.0369 166.16812 136.5392 166.34662 134.04123C 168.73755 131.15446 169.65506 127.921005 169.37984 124.40634C 172.55977 118.17229 176.7504 113.96915 180.08086 108.675964C 189.06339 111.58827 197.2083 111.82193 206.49187 109.77553C 206.63234 113.32442 206.40874 117.643295 207.56235 119.053665C 206.62283 120.32004 206.21066 122.86638 206.85187 126.09004C 206.31664 130.19374 204.3509 137.60968 203.81567 141.71338C 203.45866 142.96237 201.92575 144.44691 202.74492 145.46034C 204.54436 146.65445 206.7671 147.14241 208.98984 147.06607C 210.53607 146.53082 212.08257 145.99557 213.62878 145.46034C 213.50978 146.88783 212.7588 148.85707 213.27205 149.74254C 218.74101 154.8208 221.63974 153.01918 227.42061 150.33022C 227.37524 147.2144 226.87424 147.5638 224.11868 146.48463C 223.73804 141.96524 223.23431 137.7238 222.85367 133.2044C 223.42505 132.58195 224.17603 132.54799 224.13824 129.92204C 225.10141 128.64561 226.17244 127.35887 225.85075 126.21123C 226.33844 124.27702 226.68893 122.15915 226.42159 119.21831C 226.42159 119.21831 227.61841 117.5213 228.13435 114.22319C 229.46077 112.4395 231.02574 111.025055 231.702 108.229294C 231.98265 108.53551 233.08493 106.43529 234.27087 104.09056C 234.47357 104.22151 234.82214 103.328445 235.61604 102.794846C 235.61604 102.794846 239.67383 105.79056 239.67383 105.79056C 234.66212 103.76941 233.54735 110.24039 233.41476 111.36902C 232.14024 115.383316 232.2682 116.26607 227.29155 120.1956C 229.58875 122.0195 232.2174 120.32222 234.41379 118.219284C 232.46329 121.02591 229.30727 121.384 228.56227 126.63942C 228.515 129.83482 229.01846 131.07838 225.70811 135.7733C 229.7909 134.76775 231.99243 130.93602 232.70102 128.92302C 233.56827 124.349014 233.14877 124.98207 234.71402 122.831604C 232.06525 129.18141 235.09439 129.41641 236.41185 133.2044C 236.20699 129.59546 235.46036 126.20796 237.1783 125.13965C 238.29062 124.44765 238.57997 123.46872 238.88129 121.40465C 239.29645 117.044205 240.64323 116.42583 240.64323 116.42583C 238.29416 123.59778 241.63602 121.64049 242.12045 125.06955C 242.53207 123.666245 243.4447 122.31946 243.3553 120.85989C 243.17245 117.87804 243.68405 115.58954 245.26016 114.36609C 246.49583 113.53633 246.86806 112.64273 247.55084 111.23534C 252.83124 114.94589 256.67737 117.64845 261.9578 121.35901C 262.2447 123.072586 263.46054 123.2068 264.75815 123.20137C 265.58493 124.109665 266.41144 125.01767 267.2382 125.92595C 268.7605 126.40169 270.2828 126.877426 271.8051 127.353165C 270.8061 125.97348 269.80734 124.594086 268.80832 123.21442C 267.602 122.796814 266.39594 122.37923 265.1896 121.961624C 264.9285 120.509674 263.70398 119.92282 262.63947 119.97743C 260.59387 118.55022 259.15115 116.93498 257.10556 115.50777C 254.63177 113.55725 251.68686 111.88931 249.21307 109.93881C 250.16455 109.08269 251.58716 107.94374 252.53864 107.08763L252.53864 107.08763L250.78456 105.4034L250.78456 105.4034L247.18921 104.04083L247.18921 104.04083L246.77296 101.16438L246.77296 101.16438L248.4382 101.429565L248.4382 101.429565L250.9359 102.716324L250.9359 102.716324L252.86603 104.41931L252.86603 104.41931L254.82196 105.05562L254.82196 105.05562L254.82196 104.94667C 255.67834 103.75745 256.53445 102.56824 257.39084 101.37903C 256.52032 105.190384 258.1668 107.60712 252.21992 110.08852C 262.4509 110.234695 259.2036 105.42703 264.09848 101.093475C 264.09848 100.57019 264.09848 100.046906 264.09848 99.52362C 266.46713 98.47542 267.84653 94.97678 267.3811 92.53044C 268.48962 92.56929 269.18082 92.592926 270.0576 92.01421C 268.52332 91.56456 267.86987 90.31122 266.38208 89.67627C 267.19092 89.53363 268.3084 90.054474 269.0398 89.60318C 267.82208 89.097015 266.86517 87.8896 265.70312 87.239426L265.70312 87.239426L263.91074 89.35051C 263.07227 89.39969 262.23383 89.449135 261.3954 89.49831L261.3954 89.49831L265.2059 85.419876C 265.12085 82.576584 263.20648 78.62205 253.10947 69.69602C 249.67332 67.325745 242.79669 64.54603 237.94638 64.485435C 235.32996 63.34377 235.39978 61.62149 231.41672 61.846725C 228.1819 62.03691 226.13983 64.59738 221.61774 66.8011C 221.12541 62.14695 217.66347 61.404133 216.13437 66.41231C 212.06572 67.049164 211.6503 49.686974 211.49054 46.277462C 211.44951 44.509537 210.14917 42.33298 208.29675 40.43953C 210.43146 39.086487 208.67984 37.99671 208.72739 36.33176zzM211.80054 103.68953L211.82716 102.71985L211.82716 102.71985L212.33496 102.38811L212.33496 102.38811L211.75299 100.407715C 211.77635 100.02951 211.93802 99.77005 212.28117 99.66626C 211.08978 98.293655 212.5496 98.52432 212.46565 96.344505C 211.43266 94.025314 213.45218 95.20854 213.66519 93.02275C 214.9677 92.132675 214.07817 90.52423 215.41844 89.33176C 215.18016 89.24237 215.00357 88.79652 214.76556 88.7074C 214.51207 88.61258 214.19582 88.87314 213.94205 88.778046C 213.60704 88.61067 213.8293 88.22595 213.49457 88.05887C 213.20248 87.912964 212.35208 87.98279 212.06001 87.83716C 211.86629 87.74043 211.98149 87.34865 211.78749 87.25193C 211.56335 87.13999 211.02919 87.32175 210.80478 87.20955C 210.74174 86.68055 210.67952 86.04533 210.62029 85.17943C 211.26176 85.4196 211.9967 85.53019 212.46565 84.34913C 212.59879 83.83943 212.39827 83.4126 211.91194 83.05722C 211.61171 82.55838 211.7337 81.63651 212.46565 80.104416C 214.33737 80.0259 216.01889 79.186356 217.63277 78.074585C 217.78654 80.10469 217.67406 82.66679 218.26337 84.600174C 219.10617 84.492584 219.76884 84.04537 220.67793 83.334076C 223.79292 84.287186 226.3102 85.39869 227.22906 86.93268C 226.051 89.78685 225.09326 91.28281 224.27655 91.91531C 222.21573 90.31584 220.07368 88.89813 218.01286 87.29866C 217.97618 88.11809 217.3915 88.80412 216.55576 89.18776C 218.73965 90.60248 221.26208 92.62281 223.44597 94.03754C 223.10771 94.65265 222.76918 95.26804 222.43091 95.88316C 222.07336 97.2411 221.65332 98.50095 220.58556 98.743576C 221.06917 99.69696 221.00995 100.65088 220.58556 101.60399C 222.02419 102.705185 223.86003 103.2896 226.30638 103.08038C 226.92151 103.66481 227.5369 104.24895 228.15201 104.833374C 228.15338 106.01634 226.20206 109.40167 222.22523 108.74335C 221.33327 108.55887 220.55486 107.69379 219.66287 107.50931C 219.26945 108.43172 218.61658 109.12779 217.73819 109.55437L217.73819 109.55437L219.42813 110.60039C 219.24393 114.34708 219.05943 118.09349 218.87523 121.84018C 218.00906 124.57643 217.86398 126.95268 218.5068 128.93388C 217.49338 133.049 216.47997 137.16411 215.46654 141.2792C 214.048 143.66634 213.11473 144.17441 212.70258 142.66106C 212.33415 140.20438 211.96545 137.74744 211.59705 135.29076C 212.30943 133.36607 212.37926 130.37007 212.33415 127.183624C 213.77441 124.87584 214.58896 122.26973 214.17679 119.07622L214.17679 119.07622L215.60835 110.03798C 214.85658 110.05972 214.02138 109.95892 213.11147 109.72389C 212.95769 109.354935 212.80391 108.9857 212.65013 108.616745C 212.06218 108.678406 211.82173 108.25946 211.72745 105.387085C 211.91194 105.14093 212.0967 104.89505 212.28117 104.648895C 212.09695 104.32556 211.90324 104.001175 211.80054 103.68953zzM172.61574 71.248764C 168.45172 71.32185 162.74203 73.575836 159.13364 75.4481C 162.39236 74.286865 165.37666 73.451126 167.78009 73.30333C 168.68321 72.36191 170.11559 71.89784 172.10684 71.94023C 172.24405 71.70685 172.4212 71.477264 172.61574 71.248764zzM184.61029 34.933342C 187.37073 34.670067 190.39796 41.197834 191.37227 49.51336C 191.98766 54.769047 191.6358 59.480797 190.59685 62.302902L190.59685 62.302902L190.21376 61.448963C 190.88348 58.603493 191.04297 54.598694 190.52974 50.21624C 189.55571 41.90071 186.5282 35.372944 183.76776 35.63622C 183.55421 35.656597 183.34854 35.717457 183.15129 35.815266C 183.5822 35.292522 184.07098 34.984962 184.61029 34.933342zzM203.98547 61.799995C 203.69041 62.918022 203.5274 63.83853 203.99037 65.252975C 204.16562 66.18408 205.01575 67.35482 205.01575 67.35482C 206.81764 70.66217 208.61952 73.9698 210.42142 77.27715C 213.08647 76.09555 213.28807 76.37784 214.64194 73.57475C 213.50652 70.1685 212.37137 66.76252 211.23596 63.35627C 210.34315 61.157433 208.91676 59.131397 205.60832 59.876114C 204.99782 60.14618 204.39221 60.929207 203.98547 61.799995zzM241.48332 86.239586C 241.42029 87.028595 241.35698 87.81732 241.29395 88.60634C 243.68379 91.86397 245.62614 95.02189 246.88002 98.02684C 247.33755 97.9323 247.79536 97.83748 248.2529 97.74292C 245.99646 92.72116 243.73976 88.989426 241.48332 86.239586zzM221.89758 67.505066C 222.09483 68.12128 222.16003 68.32532 222.35728 68.94152C 226.90927 71.07352 233.18083 76.75794 236.61263 81.85034C 236.07033 80.42068 234.98572 78.9527 234.98572 77.561615C 229.38579 72.60045 224.97398 69.18469 221.89758 67.505066zzM202.8737 77.20978L184.24297 64.11213C 185.21916 63.041374 194.00853 65.85614 195.83487 66.769585C 197.07788 70.66109 199.12729 73.20851 202.25966 73.95024L202.25966 73.95024L202.8737 77.20978zzM159.23906 125.48036C 159.60829 123.68364 160.26036 121.99071 162.36247 120.824585C 162.59125 119.19386 163.16072 117.401215 164.13068 115.34366C 163.34085 113.71294 162.8518 112.13167 162.83414 110.62892C 161.58923 109.944244 160.40355 108.43361 159.23906 106.6214C 160.54863 111.31468 161.64548 113.27986 161.83267 118.14891C 159.29774 122.10889 158.85406 117.775604 159.23906 125.48036zz" stroke="#131313" stroke-width="0.2070323" fill="#131313" fill-rule="evenodd" />
					</g>
				</g>
				<g>
					<g>
                        <path d="M225.18954 -11.521134C 287.9951 -11.521134 338.90872 39.392506 338.90872 102.19767C 338.90872 165.00322 287.9951 215.91685 225.18954 215.91685C 162.38438 215.91685 111.47074 165.00322 111.47074 102.19767C 111.47074 39.392506 162.38438 -11.521134 225.18954 -11.521134zz" stroke="none" fill="none" />
					</g>
				</g>
				<g>
					<g>
                        <path d="M101.868095 95.93121C 104.69783 95.859406 107.129196 96.96454 109.1743 99.2451C 111.11093 101.41795 112.112885 103.9423 112.18545 106.81285C 110.662674 106.8514 109.230995 107.479935 107.88397 108.69241C 106.69909 109.81871 105.50854 110.95106 104.311935 112.077354C 102.71358 113.30797 100.84271 113.95313 98.68687 114.007935C 95.31251 114.093735 92.61619 113.39414 90.608505 111.909546C 88.36876 110.272255 87.204285 107.816315 87.12151 104.54778C 87.058395 102.06387 87.8744 100.03238 89.56384 98.45934C 91.1845 96.9411 93.25682 96.14967 95.77588 96.08579L95.77588 96.08579L95.906265 101.217636L95.906265 101.217636L94.04863 101.2475C 90.16933 101.2989 88.25764 102.41386 88.31282 104.587845C 88.37934 107.217636 92.09197 108.44258 99.449196 108.255875C 100.78488 108.22186 102.71509 107.815186 105.23943 107.04756C 107.76416 106.28032 109.6766 105.86835 110.97638 105.812035C 110.9692 103.68416 109.90753 102.27515 107.79742 101.58425C 106.55017 101.17001 104.61694 100.99654 101.99849 101.06306L101.99849 101.06306L101.868095 95.93121zzM115.34476 70.522964L114.460724 75.47263C 111.71981 75.38797 107.97203 74.9091 103.207184 74.02243C 97.943054 73.034836 94.20094 72.45581 91.97632 72.27931L91.97632 72.27931L90.78463 78.9532C 92.95446 79.16825 95.5544 79.54318 98.588974 80.08517L98.588974 80.08517L102.79408 80.83616C 106.364975 81.47376 109.80662 82.2017 113.114456 83.01241L113.114456 83.01241L112.185074 88.21568C 108.17877 87.14948 102.92485 86.0383 96.43503 84.87949C 93.14117 84.29102 90.54728 83.98261 88.66129 83.943306L88.66129 83.943306L91.67849 67.04693C 93.44579 67.18413 96.938835 67.72422 102.153824 68.655495L102.153824 68.655495L106.19754 69.37776C 109.745384 70.011215 112.796974 70.38954 115.34476 70.522964zzM113.154144 41.771717C 115.87729 43.00271 118.09512 44.853924 119.81821 47.330647C 121.59912 49.891655 122.48807 52.634457 122.48958 55.548096C 121.164474 55.804348 119.58728 56.44838 117.75194 57.477165C 115.84857 58.55887 114.44712 59.21159 113.561195 59.42211C 111.923904 59.81405 110.18457 59.593323 108.336754 58.75805C 105.64574 57.54142 103.430176 55.684914 101.677986 53.18816C 99.87666 50.58633 98.99074 47.851467 99.022865 44.978268C 100.337006 44.717102 101.906265 44.062866 103.7348 43.018585C 105.631 41.940285 107.02224 41.295498 107.92139 41.0846C 109.55301 40.703625 111.295746 40.93153 113.154144 41.771717zzM117.07654 47.506016C 115.07414 46.60082 113.127686 46.254616 111.23717 46.46778C 109.664505 46.631435 107.76907 47.25392 105.555405 48.323906C 104.294556 48.936947 103.61462 49.259716 103.511055 49.30356C 102.724915 49.64901 102.01323 49.886364 101.375626 50.01638C 101.89833 51.307087 102.91238 52.29279 104.41285 52.971214C 106.6235 53.97052 108.6206 54.403656 110.40114 54.263435C 112.077354 54.14022 114.01588 53.47994 116.21896 52.276157C 117.40309 51.634773 118.02936 51.287434 118.101166 51.242836C 118.8291 50.88378 119.49883 50.63962 120.10772 50.51641C 119.42892 49.116096 118.42205 48.114143 117.07654 47.506016zzM122.28208 15.716034C 123.87742 16.850266 124.75729 19.151627 124.9217 22.611778C 125.04265 24.969826 124.841576 27.588287 124.318115 30.458458C 127.164474 32.482395 129.9942 34.30715 132.80542 35.925167L132.80542 35.925167L129.64423 40.371403C 126.41499 38.37052 123.03421 36.117165 119.5045 33.607937C 116.83502 31.70948 115.021225 29.578583 114.06615 27.210335C 112.91792 24.41613 113.23843 21.76101 115.03143 19.23893C 116.25713 17.51509 117.27609 16.35553 118.08869 15.76857C 119.5011 14.753006 120.89726 14.731087 122.28208 15.716034zzM119.7343 20.562897C 118.88466 19.95855 118.20245 19.60328 117.69222 19.491783C 116.898895 19.323212 116.24806 19.601006 115.73216 20.327057C 115.04277 21.296501 115.319435 22.586456 116.568565 24.186333C 117.43559 25.313385 118.51578 26.332726 119.80498 27.249641L119.80498 27.249641L123.45865 29.847305C 123.78935 25.660347 122.552315 22.56643 119.7343 20.562897zzM145.97366 -11.222931C 146.70387 -8.607498 147.76251 -6.051399 149.15225 -3.534233L149.15225 -3.534233L149.07704 -3.4688492C 149.07024 -3.4941711 149.05624 -3.5285645 149.03433 -3.5716553C 148.90016 -3.726616 148.12724 -4.072815 146.7205 -4.614044C 145.34929 -5.1322174 144.50986 -5.4126587 144.20523 -5.450836C 142.39294 -5.6723175 140.719 -5.098961 139.18866 -3.7421112L139.18866 -3.7421112L139.00687 -3.5848846C 140.75226 -1.7937622 143.30193 0.9977951 146.65588 4.7988663C 149.96976 8.580284 152.51944 11.372223 154.30374 13.190933L154.30374 13.190933L150.04724 16.877861C 148.50633 14.8478775 146.10294 11.929703 142.8378 8.105957C 139.55452 4.2432785 137.15527 1.3213272 135.63174 -0.6614151L135.63174 -0.6614151L135.07352 -0.17801666C 133.77562 0.94564056 133.10211 2.4597168 133.05298 4.3630905C 133.02614 6.00605 133.4434 7.6599655 134.30853 9.321831L134.30853 9.321831L134.22879 9.390617C 131.94028 7.652031 129.5573 6.2430267 127.07716 5.143181L127.07716 5.143181L145.97366 -11.222931zzM184.74104 -4.3094177L179.92479 -2.1320343C 178.15521 -5.5766907 175.73027 -10.699089 172.65752 -17.496567C 172.62766 -17.335182 172.10797 -15.042519 171.09808 -10.617828C 170.38261 -7.477791 170.15509 -5.278488 170.42307 -4.016884C 170.44498 -3.9110565 170.64417 -3.4416351 171.02817 -2.5927582C 171.5278 -1.4872437 172.01877 -0.2173233 172.49197 1.2279663L172.49197 1.2279663L167.67534 3.4053574C 166.28864 -0.50154114 164.24202 -5.4413834 161.54343 -11.411148C 160.15295 -14.486931 158.91402 -16.814362 157.82703 -18.3806L157.82703 -18.3806L162.5367 -20.509605C 163.64674 -18.722267 164.79684 -16.547523 165.99458 -13.983116C 165.63893 -14.741669 166.64767 -12.496628 169.02048 -7.248001C 169.1006 -7.6826477 169.6048 -9.852852 170.5391 -13.7608795C 171.16385 -16.390297 171.48056 -18.591873 171.49985 -20.355782C 170.93481 -21.734169 170.4994 -22.939087 170.18306 -23.966362L170.18306 -23.966362L174.8606 -26.080627C 175.31339 -24.311058 176.16077 -22.038422 177.41594 -19.261986C 180.11452 -13.292221 182.55836 -8.312691 184.74104 -4.3094177zzM209.82538 -15.356216C 210.22601 -13.620659 209.8594 -12.291023 208.7195 -11.366547C 207.9379 -10.741035 206.57613 -10.203964 204.63496 -9.756096L204.63496 -9.756096L192.75818 -7.014801C 192.16138 -10.930389 191.32346 -15.211464 190.24933 -19.865196C 188.55345 -27.21373 190.3423 -31.499718 195.61813 -32.717484C 197.46823 -33.14456 199.0802 -33.300278 200.44272 -33.18123C 202.51501 -33.01039 203.71692 -32.20497 204.04913 -30.766487C 204.7026 -27.934486 202.80908 -24.989105 198.37228 -21.932594L198.37228 -21.932594L198.39987 -21.812408L198.39987 -21.812408L198.46036 -21.862297C 199.29033 -21.759117 200.5523 -21.503242 202.22778 -21.096191C 204.02344 -20.638863 205.2276 -20.26696 205.83762 -19.968758C 208.03691 -18.882896 209.36693 -17.343498 209.82538 -15.356216zzM198.79672 -28.952316C 198.5571 -29.991684 198.28082 -30.69165 197.97467 -31.054108C 197.50565 -31.60176 196.81096 -31.771843 195.88574 -31.558296C 195.04668 -31.36441 194.47409 -30.588852 194.16907 -29.22557C 193.91772 -28.072815 193.90034 -27.028534 194.11655 -26.091965L194.11655 -26.091965L195.08902 -21.878174L195.08902 -21.878174L195.34035 -21.936378C 196.7792 -22.268219 197.81934 -23.181732 198.45921 -24.68296C 199.02501 -26.034142 199.14218 -27.456375 198.79672 -28.952316zzM203.72598 -14.447624C 203.29929 -16.29808 202.28674 -17.844284 200.6846 -19.080185C 199.00082 -20.381477 197.24335 -20.829735 195.42538 -20.422302C 196.32945 -16.505196 197.07553 -12.828468 197.6727 -9.38192L197.6727 -9.38192L200.63623 -10.065636C 203.23427 -10.665451 204.26268 -12.12397 203.72598 -14.447624zzM236.42117 -11.237289L231.35962 -11.365791C 231.05273 -13.835335 230.96808 -17.65342 231.09885 -22.826454C 229.45134 -23.741478 227.21272 -24.231682 224.38942 -24.303116C 224.27452 -19.769196 224.0557 -15.524788 223.73859 -11.558548L223.73859 -11.558548L218.38412 -11.694237C 218.83426 -15.81543 219.13965 -21.165352 219.30595 -27.732285C 219.39023 -31.065445 219.30368 -33.664627 219.05801 -35.523026L219.05801 -35.523026L224.18948 -35.393005C 224.4567 -33.452225 224.53757 -30.155334 224.41965 -25.50425C 227.16737 -25.434708 229.39993 -24.944122 231.12946 -24.027214L231.12946 -24.027214L231.20541 -27.03231C 231.28629 -30.230553 231.2266 -32.958237 231.01984 -35.21991L231.01984 -35.21991L236.26886 -35.08725C 236.41965 -32.93216 236.45782 -30.275902 236.37808 -27.130203C 236.35992 -26.409447 236.3263 -25.32586 236.27792 -23.879433C 236.22955 -22.426956 236.19629 -21.342995 236.17813 -20.622612C 236.08328 -16.879372 236.16226 -13.752945 236.42117 -11.237289zzM269.14053 -3.5312119L264.05557 -4.974991C 264.92938 -8.844849 265.92493 -12.759308 267.0467 -16.7108C 268.45532 -21.671432 269.64774 -25.420723 270.6312 -27.9617L270.6312 -27.9617L275.6708 -26.53077C 274.82947 -24.747215 273.936 -22.180534 272.98544 -18.832253C 271.27444 -12.805794 269.99094 -7.7060776 269.14053 -3.5312119zzM263.5903 -10.071686C 263.02676 -8.087807 261.86307 -6.992882 260.0844 -6.7785797C 258.97964 -6.641762 257.26868 -6.902176 254.95145 -7.559807L254.95145 -7.559807L245.17719 -10.335114C 246.63797 -14.215179 247.99408 -18.3685 249.24698 -22.782234L249.24698 -22.782234L249.90955 -25.115715C 250.8635 -28.475716 251.46368 -31.211334 251.70746 -33.33467L251.70746 -33.33467L256.79205 -31.8909C 256.09473 -28.470802 255.31882 -25.243088 254.45895 -22.216064C 256.60535 -21.558044 258.75818 -19.935493 260.92838 -17.345764C 263.27924 -14.533798 264.16818 -12.106583 263.5903 -10.071686zzM257.67685 -11.750549C 258.67578 -15.268532 257.5011 -18.40403 254.15659 -21.150612C 253.0972 -17.418709 251.92856 -13.711746 250.6575 -10.02784L250.6575 -10.02784L253.54922 -9.206551C 254.7273 -8.872063 255.63629 -8.91893 256.28107 -9.344879C 256.86954 -9.744377 257.33594 -10.550171 257.67685 -11.750549zzM305.2713 -17.167747C 302.5527 -15.033447 300.31143 -14.534927 298.5358 -15.673325C 296.7844 -16.795845 296.31042 -19.021225 297.11206 -22.356659L297.11206 -22.356659L298.26556 -22.473068C 298.39862 -21.127937 299.20593 -19.976692 300.68637 -19.027657C 302.28964 -18 303.6824 -17.740723 304.87143 -18.238487L304.87143 -18.238487L305.2713 -17.167747zzM292.84497 10.512001L288.39496 7.65921C 290.3195 4.2988358 293.29398 -0.5253525 297.31955 -6.80542C 297.168 -6.742302 294.96228 -5.9289474 290.702 -4.3657303C 287.6791 -3.254547 285.71036 -2.2469254 284.79874 -1.3353043C 284.72202 -1.2593384 284.43704 -0.8364105 283.93436 -0.0517807C 283.27936 0.9694519 282.4819 2.0730743 281.52792 3.2571945L281.52792 3.2571945L277.0779 0.40478516C 279.59848 -2.8871765 282.6259 -7.294487 286.16165 -12.809952C 287.983 -15.651398 289.2601 -17.958427 289.98123 -19.723083L289.98123 -19.723083L294.3322 -16.933792C 293.43835 -15.029289 292.241 -12.879875 290.74356 -10.478363C 291.18576 -11.190048 289.85272 -9.121132 286.74405 -4.2716217C 287.15225 -4.4413223 289.24686 -5.201004 293.0328 -6.5465164C 295.57834 -7.4551163 297.597 -8.389038 299.0865 -9.333923C 299.9346 -10.558487 300.70752 -11.580475 301.39655 -12.405167L301.39655 -12.405167L305.7184 -9.634773C 304.48102 -8.291145 303.03687 -6.3420486 301.39236 -3.7768784C 297.85663 1.7385864 295.0129 6.500412 292.84497 10.512001zzM321.34903 40.56038L317.66626 35.874897C 319.4419 34.46438 320.9488 32.720882 322.19604 30.637604C 323.7071 28.093605 324.17047 25.933228 323.58273 24.15194C 319.7677 27.150238 316.58005 29.513954 314.02734 31.244598L314.02734 31.244598L310.76108 27.089012C 314.22275 24.807686 318.69052 21.512314 324.1644 17.210457C 326.67514 15.236786 328.4776 13.604034 329.55856 12.315216L329.55856 12.315216L332.82483 16.470802C 330.8485 18.29934 328.30978 20.43666 325.20453 22.877106L325.20453 22.877106L325.248 22.932281C 328.37555 21.942429 330.64554 21.35093 332.06323 21.15326C 335.1133 20.738647 337.20984 21.253036 338.3467 22.699463C 339.10336 23.66249 339.58527 24.759308 339.7901 25.977448L339.7901 25.977448L334.75464 28.361954C 334.5207 27.324097 334.05167 26.358047 333.3528 25.4691C 331.8754 23.589165 329.345 23.185516 325.7726 24.26419C 326.76474 27.442017 326.92197 30.411217 326.24466 33.172157C 325.50842 36.113766 323.8783 38.572723 321.34903 40.56038zzM332.0194 62.46312L329.83484 57.630238C 331.49707 55.830803 334.15332 53.69764 337.80435 51.217514C 341.73053 48.53594 344.45178 46.476475 345.95642 45.02438C 341.1307 44.74885 336.7854 45.479057 332.914 47.228977C 330.60776 48.271748 328.6341 49.63956 326.9915 51.340347L326.9915 51.340347L324.7563 46.39559C 325.4245 45.73984 326.16568 45.2315 326.96655 44.86942C 329.93008 43.529575 333.22922 42.861355 336.864 42.86438C 339.1612 42.86778 342.53595 43.22003 346.97763 43.92605C 347.7139 43.278236 348.36472 42.58507 348.9392 41.849575L348.9392 41.849575L351.22998 46.917168C 349.40106 48.87534 346.18506 51.448063 341.58084 54.635715C 337.09644 57.717922 333.9099 60.32882 332.0194 62.46312zzM361.61047 83.10803L356.0364 83.1137C 356.30704 82.251595 356.34067 81.38344 356.14035 80.515656C 355.67926 78.517044 353.1258 77.45877 348.46677 77.33745C 345.08975 77.24448 341.9569 77.534744 339.06784 78.20145C 334.14047 79.33871 330.06464 81.09165 326.8388 83.45386L326.8388 83.45386L324.288 79.41165C 328.3763 78.46791 332.3176 77.72107 336.11264 77.17569L336.11264 77.17569L334.95044 72.13985C 342.28195 70.44737 349.6781 67.05638 357.13815 61.96082L357.13815 61.96082L358.48895 67.81304C 351.0312 72.00605 343.92416 74.87924 337.17505 76.437164L337.17505 76.437164L337.30545 77.00258C 342.25928 76.31622 346.72137 76.002144 350.6895 76.04863C 357.51193 76.13934 361.20642 77.397545 361.76428 79.81304C 362.01184 80.88643 361.95892 81.98702 361.61047 83.10803zzM343.4143 112.94514C 341.35257 112.8926 339.99988 112.14312 339.3445 110.69632C 338.9348 109.75975 338.75906 108.12586 338.81763 105.805984L338.81763 105.805984L339.10867 94.323784C 343.3474 94.75389 348.90292 95.05285 355.76843 95.22671C 358.7796 95.303055 361.19095 95.20554 363.00928 94.92926L363.00928 94.92926L362.57083 112.245926C 360.19202 111.05424 357.58374 110.11465 354.74646 109.438866L354.74646 109.438866L354.7491 109.33379C 354.77216 109.345894 354.80692 109.35836 354.85342 109.37159C 355.0821 109.37726 355.86557 108.98079 357.20505 108.176506C 358.78226 107.23162 359.65115 106.72063 359.79968 106.64769C 360.96228 105.404976 361.58514 103.26388 361.66223 100.217575C 359.74753 100.36271 356.83353 100.38879 352.92056 100.28938C 352.83704 102.65575 351.83243 105.29726 349.90036 108.2143C 347.78494 111.425766 345.617 113.000694 343.4143 112.94514zzM343.57 106.79962C 347.79932 106.906586 350.5508 104.73147 351.8192 100.261795C 347.54266 100.15332 343.6611 99.95528 340.1745 99.673325L340.1745 99.673325L340.09778 102.71395C 340.0634 104.061356 340.29053 105.05197 340.77884 105.6858C 341.32346 106.3971 342.2521 106.766365 343.57 106.79962zz" stroke="none" fill="#131313" fill-rule="evenodd" />
					</g>
				</g>
				<g>
					<g>
						<g>
						</g>
					</g>
					<g>
					</g>
					<g>
						<g>
							<g>
							</g>
							<g>
								<g>
								</g>
								<g>
								</g>
							</g>
						</g>
					</g>
				</g>
			</g>
		</g>
	</g>
</g>
</svg>