<svg width="328" height="327" viewBox="0 0 328 327" fill="none" xmlns="http://www.w3.org/2000/svg">
<path fill-rule="evenodd" clip-rule="evenodd" d="M164.063 0.280151C254.163 0.280151 327.204 73.3209 327.204 163.421C327.204 253.521 254.163 326.562 164.063 326.562C73.9631 326.562 0.922363 253.521 0.922363 163.421C0.922363 73.3209 73.9631 0.280151 164.063 0.280151ZM164.063 12.7617C247.27 12.7617 314.723 80.2142 314.723 163.421C314.723 246.628 247.27 314.08 164.063 314.08C80.8565 314.08 13.4039 246.628 13.4039 163.421C13.4039 80.2142 80.8565 12.7617 164.063 12.7617Z" fill="white" stroke="white" stroke-width="0.199334"/>
<path fill-rule="evenodd" clip-rule="evenodd" d="M81.2826 265.461H77.7431L70.4308 254.842L77.7431 244.224H81.2826L75.122 254.842L81.2826 265.461ZM72.1418 265.461H68.6945L61.2817 254.842L68.6945 244.224H72.1418L66.0984 254.842L72.1418 265.461ZM113.555 261.053C113.555 263.591 112.619 265.319 110.741 266.237C109.456 266.855 107.394 267.164 104.556 267.164H87.1927C87.6183 261.537 87.8272 255.327 87.8272 248.523C87.8272 237.78 91.6839 232.404 99.3968 232.404C102.101 232.404 104.389 232.705 106.242 233.305C109.064 234.207 110.474 235.71 110.474 237.813C110.474 241.954 106.901 245.435 99.7641 248.256V248.432L99.8643 248.381C100.983 248.791 102.652 249.55 104.848 250.652C107.194 251.862 108.746 252.764 109.498 253.373C112.202 255.585 113.555 258.148 113.555 261.053ZM102.603 238.648C102.603 237.129 102.444 236.069 102.135 235.468C101.659 234.558 100.749 234.098 99.3968 234.098C98.1699 234.098 97.1264 234.992 96.2666 236.786C95.5488 238.306 95.1898 239.75 95.1898 241.119V247.28H95.5571C97.6605 247.28 99.3967 246.344 100.766 244.466C101.985 242.772 102.603 240.835 102.603 238.648ZM104.798 260.36C104.798 257.655 103.888 255.185 102.06 252.956C100.14 250.61 97.8441 249.425 95.1898 249.408C95.1898 255.135 95.0477 260.477 94.7725 265.452H99.1046C102.903 265.452 104.798 263.758 104.798 260.36ZM153.356 267.164H145.827C145.518 261.521 145.359 255.769 145.359 249.917C145.359 242.571 145.535 236.97 145.894 233.105H153.356C152.897 235.877 152.672 239.742 152.672 244.7C152.672 253.624 152.897 261.111 153.356 267.164ZM143.206 260.36C143.206 263.299 142.037 265.252 139.683 266.237C138.222 266.855 135.776 267.164 132.345 267.164H117.87C118.363 261.279 118.605 255.06 118.605 248.523V245.067C118.605 240.092 118.363 236.11 117.87 233.105H125.4C125.776 238.064 125.968 242.788 125.968 247.271C129.165 247.338 132.746 248.724 136.728 251.428C141.043 254.367 143.206 257.347 143.206 260.36ZM134.449 260.36C134.449 255.152 131.619 251.312 125.968 248.849C125.968 254.375 125.809 259.91 125.5 265.452H129.783C131.527 265.452 132.754 265.035 133.472 264.2C134.123 263.424 134.449 262.138 134.449 260.36ZM185.336 260.36C185.336 263.299 184.318 265.252 182.281 266.237C180.962 266.855 178.641 267.164 175.336 267.164H158.974C159.433 261.111 159.659 253.19 159.659 243.406C159.659 239.115 159.433 235.685 158.974 233.105H183.65C182.039 236.536 180.795 240.284 179.935 244.35H179.785C179.802 244.316 179.818 244.266 179.835 244.199C179.835 243.874 179.242 242.772 178.049 240.894C176.646 238.681 175.886 237.463 175.778 237.254C173.966 235.643 170.895 234.833 166.554 234.833C166.829 237.554 166.971 241.703 166.971 247.28C170.344 247.313 174.142 248.648 178.366 251.295C183.015 254.192 185.336 257.222 185.336 260.36ZM176.579 260.36C176.579 254.333 173.382 250.493 166.971 248.849C166.971 254.943 166.829 260.477 166.554 265.452H170.886C172.806 265.452 174.209 265.094 175.094 264.375C176.087 263.574 176.579 262.239 176.579 260.36ZM214.01 248.264C214.01 252.522 212.908 256.487 210.705 260.177C208.426 263.991 205.387 266.755 201.605 268.466C200.495 266.896 198.734 265.227 196.322 263.449C193.8 261.612 192.131 260.177 191.338 259.15C189.869 257.255 189.134 254.868 189.134 251.979C189.134 247.772 190.245 243.807 192.457 240.067C194.777 236.202 197.807 233.448 201.556 231.803C202.666 233.356 204.436 235.009 206.865 236.77C209.377 238.598 211.03 240.025 211.831 241.069C213.284 242.964 214.01 245.36 214.01 248.264ZM208.868 256.721C208.868 253.59 208.175 250.861 206.789 248.532C205.654 246.587 203.734 244.491 201.046 242.246C199.51 240.969 198.692 240.276 198.575 240.167C197.666 239.349 196.939 238.565 196.396 237.813C195.027 239.249 194.343 241.144 194.343 243.49C194.343 246.945 194.952 249.792 196.18 252.021C197.323 254.125 199.318 256.253 202.173 258.407C203.701 259.567 204.519 260.177 204.619 260.243C205.512 260.978 206.222 261.704 206.74 262.422C208.158 260.719 208.868 258.824 208.868 256.721ZM241.724 238.264C241.724 241.052 239.779 243.974 235.897 247.021C233.26 249.108 230.054 251.036 226.289 252.797C226.289 257.773 226.506 262.564 226.949 267.164H219.177C218.835 261.763 218.66 255.978 218.66 249.809C218.66 245.143 219.636 241.278 221.598 238.214C223.894 234.574 227.241 232.754 231.648 232.754C234.662 232.754 236.849 232.98 238.201 233.439C240.547 234.241 241.724 235.843 241.724 238.264ZM233.994 239.307C233.994 237.822 233.844 236.737 233.552 236.052C233.093 234.992 232.233 234.466 230.964 234.466C229.27 234.466 228 235.852 227.174 238.623C226.582 240.56 226.289 242.655 226.289 244.909V251.295C231.423 248.223 233.994 244.232 233.994 239.307ZM266.483 254.842L259.071 265.461H255.673L261.734 254.842L255.648 244.224H259.071L266.483 254.842ZM257.359 254.842L250.097 265.461H246.549L252.71 254.842L246.549 244.224H250.097L257.359 254.842Z" fill="white"/>
<path fill-rule="evenodd" clip-rule="evenodd" d="M215.768 176.957C212.323 179.178 209.745 179.228 211.638 182.346C212.166 183.513 220.584 183.67 225.287 184.796C227.758 184.955 229.611 183.55 231.937 183.746C237.536 184.53 239.262 184.692 244.886 184.096C246.964 182.603 251.603 181.691 253.215 179.266C253.472 176.14 253.729 173.013 253.985 169.887C256.222 167.109 256.022 167.337 256.855 163.867C257.443 158.179 257.62 151.955 256.995 144.689C256.878 140.839 256.761 136.989 256.645 133.14C255.851 131.227 255.058 129.313 254.265 127.4C253.285 126.374 252.305 125.347 251.325 124.32C250.392 123.55 249.459 122.781 248.526 122.011C247.848 121.474 246.495 121.078 245.446 121.451C244.932 120.867 244.792 120.191 243.906 119.701C240.254 117.599 240.159 117.494 237.816 120.261C234.815 123.716 232.016 125.173 230.677 129.92C226.492 138.963 223.134 145.803 220.878 156.098C220.878 156.775 220.878 157.451 220.878 158.128C220.518 158.025 219.932 158.174 219.478 159.038C216.658 165.382 217.406 170.729 215.768 176.957ZM248.664 180.023C248.19 176.717 247.497 175.955 246.657 176.906C246.053 177.969 245.349 178.933 243.767 179.018C242.913 178.399 239.03 180.85 238.764 177.462C240.888 171.085 237.778 171.636 231.872 176.572C229.741 177.624 229.63 178.105 227.981 177.462C230.806 170.934 230.36 169.156 225.647 173.571C225.284 178.342 222.796 179.732 219.755 180.241C222.963 176.336 223.475 174.092 221.842 173.167C221.131 172.764 218.005 179.679 218.532 172.682C217.535 169.834 218.042 167.169 219.643 167.012C224.081 180.826 231.798 152.707 235.207 166.345C235.741 168.424 239.336 167.101 241.686 167.201C242.955 166.062 243.313 166.336 244.583 165.196C246.351 163.549 245.092 162.996 244.307 162.771C244.086 161.499 243.258 159.674 245.463 160.459C246.108 159.125 245.277 157.792 243.684 156.457C246.139 154.261 247.088 153.458 245.819 150.499C246.685 150.894 247.734 151.179 248.309 150.588C250.119 148.536 249.923 146.229 249.909 143.118C249.695 140.442 250.171 138.924 250.798 134.76C250.887 137.279 250.976 139.798 251.065 142.318C251.065 143.889 251.065 145.46 251.065 147.031C251.036 147.594 251.006 148.158 250.976 148.721C250.772 150.868 250.401 152.882 248.397 154.501C247.101 155.88 249.687 158.632 248.778 161.945C247.77 162.716 247.674 164.536 246.53 165.261C245.664 166.115 243.914 166.72 247.152 168.729C244.603 171.036 245.173 173.64 245.285 176.199C246.891 176.538 248.168 175.069 249.287 172.731C249.079 175.162 248.872 177.592 248.664 180.023ZM250.134 128.789C250.69 129.313 250.879 130.016 250.555 130.36C250.231 130.705 249.517 130.559 248.961 130.036C248.405 129.512 248.216 128.808 248.54 128.464C248.863 128.12 249.577 128.265 250.134 128.789ZM244.742 126.431C244.798 126.453 244.852 126.478 244.904 126.504C245.197 126.217 245.731 126.025 246.343 126.025C247.268 126.025 248.018 126.465 248.018 127.008C248.018 127.552 247.268 127.992 246.343 127.992C246.161 127.992 245.986 127.975 245.822 127.943C245.816 128.073 245.788 128.203 245.739 128.328C245.457 129.049 244.552 129.369 243.719 129.043C242.885 128.716 242.439 127.867 242.721 127.146C243.004 126.425 243.909 126.105 244.742 126.431ZM239.751 124.835L239.751 124.823L239.751 124.812C239.763 124.472 240.311 124.186 241.067 124.085C240.88 123.839 240.805 123.588 240.882 123.37C241.065 122.848 242.045 122.717 243.069 123.078C244.094 123.438 244.776 124.153 244.592 124.674C244.469 125.023 243.991 125.198 243.381 125.167C243.068 125.424 242.417 125.601 241.664 125.601C240.617 125.601 239.766 125.259 239.751 124.835ZM238.164 122.899C238.781 123.083 239.208 123.474 239.119 123.773C239.03 124.071 238.458 124.164 237.841 123.981C237.225 123.796 236.797 123.405 236.886 123.106C236.975 122.808 237.547 122.715 238.164 122.899Z" fill="white" stroke="white" stroke-width="0.19834"/>
<path fill-rule="evenodd" clip-rule="evenodd" d="M147.601 96.6316C148.036 96.6259 148.479 96.8139 148.572 96.5816C148.724 96.2238 148.283 95.0655 148.448 94.6129C148.589 94.2255 149.122 94.4491 149.4 94.5319C149.229 93.8589 149.161 93.3378 149.161 93.3378C148.672 91.9829 150.88 91.8299 150.875 91.6465C150.835 90.2921 151.388 84.8462 150.023 83.3563C149.788 83.1123 150.332 85.6434 150.319 87.3901C150.311 88.431 149.966 89.2284 149.956 89.1776C149.485 86.9342 148.596 84.7482 146.558 83.2362C147.175 80.9504 147.691 79.042 148.308 76.7562C147.4 78.8415 146.492 80.9268 145.584 83.012C143.887 82.7213 142.085 82.9071 139.987 84.7764C138.529 85.8583 137.409 87.7844 136.874 89.6865C136.049 95.7698 133.263 96.7846 130.856 98.7791C130.174 95.9233 127.558 90.6233 124.279 90.9597C116.186 91.79 120.43 114.347 120.625 119.825C119.651 119.63 118.676 119.435 117.702 119.24C116.937 118.958 116.728 119.508 116.606 120.191C107.585 114.048 98.5638 107.906 89.5427 101.763C88.594 101.022 86.5829 100.342 86.3272 100.74C86.0254 101.172 87.4637 102.65 88.3628 103.252C97.3515 109.488 105.985 115.478 114.974 121.714C115.321 123.302 115.994 124.751 117.24 125.953C118.36 126.781 119.481 127.609 120.601 128.437C122.171 129.545 122.828 130.481 122.794 131.287C122.38 131.653 121.966 132.018 121.552 132.384C119.943 132.252 118.174 132.702 116.727 131.989C116.726 131.863 116.689 131.743 116.623 131.632C115.193 131.623 113.846 131.794 112.818 132.655C112.818 133.05 112.818 133.445 112.818 133.84C117.867 133.474 121.527 134.332 125.932 136.304C126.979 137.351 128.663 138.72 129.71 139.767C124.741 137.259 119.055 135.316 110.743 135.441C107.915 147.792 102.171 149.651 96.1629 150.555C96.8182 150.12 96.4427 148.802 95.9849 147.413C100.977 146.893 105.703 145.31 108.313 135.263C107.66 135.305 107.361 135.156 107.246 134.907C98.7334 136.019 93.776 138.84 91.6581 143.027L90.9922 142.562C90.9691 142.772 90.9651 142.984 90.983 143.201C88.278 142.94 85.9093 143.291 84.931 146.17C79.4136 150.713 82.2977 160.426 80.674 170.013C79.4601 177.18 79.9203 184.408 79.5269 189.702C79.5174 191.651 80.0706 194.381 82.9169 194.163C83.3377 199.694 82.0822 205.225 78.9917 210.756C84.0031 212.379 87.9759 204.575 87.9759 204.575C87.7278 212.938 87.6754 211.717 84.8796 215.574C92.0763 213.436 95.7295 206.206 96.6557 195.055C96.6557 195.055 98.6527 193.958 98.6182 194.163C98.083 197.493 97.5477 200.824 97.0125 204.154C96.4177 208.08 95.823 212.005 95.2282 215.93C94.7384 219.63 96.1909 220.554 97.9047 221.104C99.9269 220.926 101.949 220.748 103.971 220.569C105.255 220.311 111.369 218.809 110.85 216.748C110.023 215.437 108.902 214.784 107.304 215.207C105.275 211.283 105.247 206.436 104.685 201.835C104.863 199.337 105.042 196.839 105.22 194.341C107.611 191.454 108.529 188.221 108.253 184.706C111.433 178.472 115.624 174.269 118.954 168.976C127.937 171.888 136.082 172.122 145.365 170.075C145.506 173.624 145.282 177.943 146.436 179.354C145.496 180.62 145.084 183.166 145.725 186.39C145.19 190.494 143.224 197.91 142.689 202.013C142.332 203.262 140.799 204.747 141.618 205.76C143.418 206.954 145.641 207.442 147.863 207.366C149.41 206.831 150.956 206.295 152.502 205.76C152.383 207.188 151.632 209.157 152.146 210.042C157.614 215.121 160.513 213.319 166.294 210.63C166.249 207.514 165.748 207.864 162.992 206.784C162.612 202.265 162.108 198.024 161.727 193.504C162.299 192.882 163.05 192.848 163.012 190.222C163.975 188.945 165.046 187.659 164.724 186.511C165.212 184.577 165.562 182.459 165.295 179.518C165.295 179.518 166.492 177.821 167.008 174.523C168.334 172.739 169.899 171.325 170.576 168.529C170.856 168.835 171.958 166.735 173.144 164.39C173.347 164.521 173.696 163.628 174.49 163.095L178.547 166.09C173.536 164.069 172.421 170.54 172.288 171.669C171.014 175.683 171.142 176.566 166.165 180.495C168.462 182.319 171.091 180.622 173.287 178.519C171.337 181.326 168.181 181.684 167.436 186.939C167.389 190.135 167.892 191.378 164.582 196.073C168.664 195.068 170.866 191.236 171.575 189.223C172.442 184.649 172.022 185.282 173.588 183.131C170.939 189.481 173.968 189.716 175.285 193.504C175.08 189.895 174.334 186.508 176.052 185.439C177.164 184.747 177.453 183.769 177.755 181.704C178.17 177.344 179.517 176.726 179.517 176.726C177.168 183.898 180.51 181.94 180.994 185.369C181.406 183.966 182.318 182.619 182.229 181.16C182.046 178.178 182.558 175.889 184.134 174.666C185.369 173.836 185.742 172.943 186.424 171.535C191.705 175.246 195.551 177.948 200.831 181.659C201.118 183.372 202.334 183.507 203.632 183.501C204.458 184.409 205.285 185.318 206.112 186.226C207.634 186.702 209.156 187.177 210.679 187.653C209.68 186.273 208.681 184.894 207.682 183.514C206.475 183.097 205.269 182.679 204.063 182.261C203.802 180.81 202.577 180.223 201.513 180.277C199.467 178.85 198.025 177.235 195.979 175.808C193.505 173.857 190.56 172.189 188.087 170.239C189.038 169.383 190.461 168.244 191.412 167.387L189.658 165.703L186.063 164.341L185.646 161.464L187.312 161.729L189.809 163.016L191.74 164.719L193.695 165.355V165.246C194.552 164.057 195.408 162.868 196.264 161.679C195.394 165.49 197.04 167.907 191.093 170.388C201.324 170.535 198.077 165.727 202.972 161.393C202.972 160.87 202.972 160.347 202.972 159.823C205.341 158.775 206.72 155.277 206.255 152.83C207.363 152.869 208.054 152.893 208.931 152.314C207.397 151.864 206.743 150.611 205.256 149.976C206.064 149.833 207.182 150.354 207.913 149.903C206.696 149.397 205.739 148.189 204.577 147.539L202.784 149.65C201.946 149.7 201.107 149.749 200.269 149.798L204.079 145.72C203.994 142.876 202.08 138.922 191.983 129.996C188.547 127.626 181.67 124.846 176.82 124.785C174.203 123.644 174.273 121.921 170.29 122.147C167.055 122.337 165.013 124.897 160.491 127.101C159.999 122.447 156.537 121.704 155.008 126.712C150.939 127.349 150.524 109.987 150.364 106.577C150.323 104.809 149.023 102.633 147.17 100.739C149.305 99.3863 147.553 98.2965 147.601 96.6316ZM150.674 163.989L150.701 163.02L151.208 162.688L150.626 160.708C150.65 160.329 150.812 160.07 151.155 159.966C149.963 158.593 151.423 158.824 151.339 156.644C150.306 154.325 152.326 155.508 152.539 153.323C153.841 152.433 152.952 150.824 154.292 149.632C154.054 149.542 153.877 149.096 153.639 149.007C153.386 148.912 153.069 149.173 152.816 149.078C152.481 148.911 152.703 148.526 152.368 148.359C152.076 148.213 151.226 148.283 150.934 148.137C150.74 148.04 150.855 147.648 150.661 147.552C150.437 147.44 149.903 147.622 149.678 147.509C149.615 146.98 149.553 146.345 149.494 145.479C150.135 145.719 150.87 145.83 151.339 144.649C151.472 144.139 151.272 143.712 150.785 143.357C150.485 142.858 150.607 141.936 151.339 140.404C153.211 140.326 154.892 139.486 156.506 138.374C156.66 140.405 156.548 142.967 157.137 144.9C157.98 144.792 158.642 144.345 159.551 143.634C162.666 144.587 165.184 145.699 166.103 147.233C164.924 150.087 163.967 151.583 163.15 152.215C161.089 150.616 158.947 149.198 156.886 147.598C156.85 148.418 156.265 149.104 155.429 149.488C157.613 150.902 160.136 152.923 162.319 154.337C161.981 154.952 161.643 155.568 161.304 156.183C160.947 157.541 160.527 158.801 159.459 159.043C159.943 159.997 159.883 160.951 159.459 161.904C160.898 163.005 162.734 163.589 165.18 163.38C165.795 163.965 166.41 164.549 167.026 165.133C167.027 166.316 165.076 169.702 161.099 169.043C160.207 168.859 159.428 167.994 158.536 167.809C158.143 168.732 157.49 169.428 156.612 169.854L158.302 170.9C158.117 174.647 157.933 178.393 157.749 182.14C156.883 184.876 156.737 187.253 157.38 189.234C156.367 193.349 155.353 197.464 154.34 201.579C152.922 203.966 151.988 204.474 151.576 202.961C151.208 200.504 150.839 198.047 150.471 195.591C151.183 193.666 151.253 190.67 151.208 187.483C152.648 185.176 153.462 182.57 153.05 179.376L154.482 170.338C153.73 170.36 152.895 170.259 151.985 170.024C151.831 169.655 151.677 169.286 151.524 168.917C150.936 168.978 150.695 168.559 150.601 165.687C150.785 165.441 150.97 165.195 151.155 164.949C150.97 164.625 150.777 164.301 150.674 163.989ZM111.489 131.549C107.325 131.622 101.616 133.876 98.0071 135.748C101.266 134.587 104.25 133.751 106.654 133.603C107.557 132.662 108.989 132.198 110.98 132.24C111.118 132.007 111.295 131.777 111.489 131.549ZM123.484 95.2332C126.244 94.9699 129.271 101.498 130.246 109.813C130.861 115.069 130.509 119.781 129.47 122.603L129.087 121.749C129.757 118.903 129.916 114.899 129.403 110.516C128.429 102.201 125.402 95.6728 122.641 95.9361C122.428 95.9564 122.222 96.0173 122.025 96.1151C122.456 95.5924 122.944 95.2848 123.484 95.2332ZM142.859 122.1C142.564 123.218 142.401 124.138 142.864 125.553C143.039 126.484 143.889 127.655 143.889 127.655C145.691 130.962 147.493 134.27 149.295 137.577C151.96 136.395 152.162 136.678 153.515 133.875C152.38 130.468 151.245 127.062 150.109 123.656C149.217 121.457 147.79 119.431 144.482 120.176C143.871 120.446 143.266 121.229 142.859 122.1ZM180.357 146.539C180.294 147.328 180.23 148.117 180.167 148.906C182.557 152.164 184.5 155.322 185.754 158.327C186.211 158.232 186.669 158.137 187.126 158.043C184.87 153.021 182.613 149.289 180.357 146.539ZM160.771 127.805C160.968 128.421 161.034 128.625 161.231 129.241C165.783 131.373 172.054 137.058 175.486 142.15C174.944 140.721 173.859 139.253 173.859 137.861C168.259 132.9 163.848 129.485 160.771 127.805ZM141.747 137.51L123.116 124.412C124.093 123.341 132.882 126.156 134.708 127.069C135.951 130.961 138.001 133.508 141.133 134.25L141.747 137.51ZM98.1125 185.78C98.4818 183.983 99.1339 182.291 101.236 181.124C101.465 179.494 102.034 177.701 103.004 175.643C102.214 174.013 101.725 172.431 101.708 170.929C100.463 170.244 99.277 168.733 98.1125 166.921C99.4221 171.615 100.519 173.58 100.706 178.449C98.1712 182.409 97.7276 178.075 98.1125 185.78Z" fill="white" stroke="white" stroke-width="0.207032"/>
<path fill-rule="evenodd" clip-rule="evenodd" d="M45.8509 198.44C48.4841 197.401 51.1472 197.605 53.8507 199.046C56.4154 200.422 58.2224 202.449 59.2758 205.12C57.8585 205.679 56.7295 206.761 55.8803 208.362C55.1538 209.826 54.4244 211.298 53.6866 212.767C52.6079 214.472 51.0719 215.72 49.0654 216.511C45.9254 217.749 43.1527 218.017 40.7576 217.312C38.0923 216.542 36.1557 214.635 34.956 211.593C34.0448 209.282 34.1143 207.094 35.1613 205.036C36.1624 203.055 37.8375 201.6 40.1816 200.676L42.0649 205.451L40.3305 206.116C36.7044 207.496 35.2913 209.199 36.0887 211.222C37.054 213.67 40.9613 213.546 47.8079 210.846C49.051 210.356 50.7242 209.312 52.8321 207.724C54.9403 206.137 56.5949 205.094 57.7968 204.595C57.0599 202.599 55.579 201.64 53.3597 201.715C52.0463 201.754 50.1713 202.254 47.7342 203.216L45.8509 198.44ZM50.1788 164.224L50.5602 169.237C47.8846 169.84 44.1365 170.313 39.3014 170.645C33.9571 171.005 30.1893 171.38 27.9911 171.765L28.5051 178.525C30.6602 178.191 33.2711 177.904 36.3446 177.67L40.6042 177.346C44.2212 177.071 47.7354 176.916 51.1407 176.874L51.5417 182.144C47.396 182.113 42.0309 182.351 35.4576 182.85C32.121 183.104 29.5324 183.453 27.6967 183.887L26.395 166.773C28.1404 166.464 31.6576 166.114 36.9399 165.712L41.0358 165.401C44.6293 165.127 47.6787 164.731 50.1788 164.224ZM40.659 131.285C43.6009 131.811 46.2051 133.061 48.4829 135.039C50.8376 137.085 52.3721 139.526 53.0883 142.35C51.8668 142.924 50.4955 143.935 48.969 145.383C47.3892 146.898 46.1907 147.875 45.3834 148.296C43.8923 149.078 42.1519 149.291 40.1559 148.934C37.2487 148.415 34.6454 147.158 32.3338 145.168C29.9497 143.088 28.4197 140.654 27.7458 137.86C28.956 137.285 30.3167 136.266 31.8334 134.805C33.4072 133.294 34.5974 132.328 35.4175 131.903C36.9059 131.133 38.6513 130.927 40.659 131.285ZM45.8679 135.882C43.7049 135.496 41.7331 135.638 39.9522 136.308C38.468 136.853 36.7834 137.921 34.8997 139.501C33.8275 140.405 33.2477 140.885 33.1581 140.952C32.4808 141.48 31.8489 141.885 31.2627 142.167C32.0858 143.291 33.3108 143.997 34.9318 144.287C37.3201 144.713 39.3626 144.643 41.0543 144.07C42.6493 143.54 44.3663 142.424 46.2069 140.717C47.1975 139.804 47.7195 139.314 47.7781 139.253C48.3957 138.727 48.9853 138.326 49.545 138.057C48.5438 136.866 47.3215 136.142 45.8679 135.882ZM46.2447 97.82C48.0283 98.6262 49.3345 100.715 50.1614 104.08C50.7333 106.37 51.0398 108.978 51.078 111.896C54.2604 113.334 57.3883 114.581 60.4584 115.628L58.2111 120.6C54.6572 119.257 50.9064 117.696 46.9602 115.912C43.9751 114.563 41.7856 112.821 40.3929 110.68C38.7284 108.159 38.5322 105.491 39.807 102.672C40.6782 100.744 41.4549 99.4104 42.1398 98.6783C43.3303 97.4095 44.6963 97.12 46.2447 97.82ZM44.6766 103.066C43.7264 102.637 42.9886 102.419 42.4667 102.408C41.6556 102.395 41.0706 102.793 40.7036 103.605C40.2137 104.689 40.7334 105.901 42.2668 107.231C43.3345 108.17 44.5904 108.963 46.0319 109.615L50.1169 111.461C49.6361 107.289 47.8272 104.491 44.6766 103.066ZM69.1044 61.9647C70.2009 64.449 71.6137 66.8279 73.3489 69.1209L73.2835 69.1961C73.2733 69.1719 73.2544 69.1402 73.2268 69.1005C73.0714 68.9663 72.2573 68.7339 70.7875 68.3994C69.3565 68.0823 68.4854 67.9243 68.1784 67.93C66.3533 67.9697 64.7784 68.7762 63.4575 70.3375L63.2998 70.5193C65.283 72.0428 68.2053 74.4417 72.0676 77.725C75.8875 80.9947 78.8095 83.3935 80.8357 84.9394L77.1488 89.1959C75.3339 87.4066 72.5382 84.8615 68.7609 81.5435C64.9598 78.1891 62.1679 75.6398 60.3767 73.8944L59.8933 74.4527C58.7693 75.7502 58.3188 77.3452 58.5418 79.2357C58.75 80.8658 59.399 82.4434 60.4928 83.9646L60.4236 84.044C57.9102 82.6501 55.3503 81.5956 52.7383 80.8612L69.1044 61.9647ZM113.323 60.5111L108.741 63.1458C106.646 59.8898 103.735 55.0267 100.016 48.5599C100.002 48.7235 99.7077 51.0559 99.132 55.5573C98.725 58.7521 98.7121 60.9635 99.1014 62.193C99.1336 62.2958 99.3777 62.7437 99.8418 63.5514C100.447 64.6032 101.058 65.8195 101.67 67.2119L97.0877 69.8469C95.3279 66.0931 92.8112 61.3751 89.5456 55.6956C87.8634 52.7699 86.4041 50.5736 85.1701 49.1204L89.6507 46.5439C90.929 48.2152 92.285 50.2679 93.7262 52.7038C93.2983 51.9834 94.5202 54.1196 97.3915 59.1135C97.429 58.6728 97.7204 56.464 98.2707 52.4838C98.6369 49.806 98.7386 47.5844 98.5863 45.8265C97.8901 44.5098 97.3394 43.3528 96.9252 42.3611L101.375 39.8024C101.998 41.5198 103.062 43.6994 104.581 46.3409C107.847 52.0204 110.762 56.7388 113.323 60.5111ZM142.914 45.836C143.401 47.5492 143.1 48.8959 142.008 49.8759C141.258 50.5392 139.925 51.1432 138.009 51.6875L126.283 55.0168C125.492 51.1356 124.442 46.9018 123.138 42.307C121.078 35.0522 122.651 30.6823 127.86 29.2034C129.686 28.6849 131.289 28.4494 132.655 28.5001C134.733 28.5677 135.974 29.3119 136.377 30.7326C137.171 33.5283 135.426 36.5644 131.147 39.8379L131.181 39.9565L131.239 39.9036C132.073 39.9652 133.346 40.1584 135.04 40.4811C136.856 40.8489 138.077 41.16 138.701 41.4276C140.952 42.4027 142.357 43.874 142.914 45.836ZM131.222 32.8057C130.931 31.7795 130.62 31.0943 130.296 30.7474C129.801 30.2239 129.098 30.0886 128.185 30.3482C127.356 30.5833 126.823 31.3865 126.587 32.7634C126.393 33.9271 126.427 34.971 126.69 35.8954L127.871 40.0556L128.119 39.9853C129.539 39.582 130.533 38.6179 131.097 37.0868C131.595 35.7087 131.641 34.2827 131.222 32.8057ZM136.867 47.047C136.349 45.2203 135.261 43.7263 133.599 42.5716C131.853 41.3561 130.075 40.9955 128.279 41.4933C129.377 45.3601 130.306 48.9953 131.074 52.4078L133.999 51.5775C136.564 50.8492 137.519 49.3411 136.867 47.047ZM175.296 49.0626L170.234 48.9341C169.927 46.4645 169.842 42.6464 169.973 37.4734C168.326 36.5584 166.087 36.0682 163.264 35.9967C163.149 40.5306 162.93 44.7751 162.613 48.7413L157.259 48.6056C157.709 44.4844 158.014 39.1345 158.18 32.5676C158.265 29.2344 158.178 26.6352 157.932 24.7769L163.064 24.9069C163.331 26.8477 163.412 30.1445 163.294 34.7956C166.042 34.8651 168.274 35.3557 170.004 36.2726L170.08 33.2675C170.161 30.0693 170.101 27.3416 169.894 25.08L175.143 25.2126C175.294 27.3677 175.332 30.024 175.252 33.1696C175.234 33.8904 175.201 34.974 175.152 36.4204C175.104 37.8729 175.071 38.9568 175.053 39.6772C174.958 43.4205 175.037 46.5469 175.296 49.0626ZM213.177 59.0666L208.17 57.3726C209.235 53.5507 210.423 49.6904 211.739 45.7993C213.392 40.9147 214.769 37.2292 215.877 34.7401L220.839 36.4189C219.911 38.1586 218.891 40.6781 217.776 43.9749C215.768 49.9092 214.234 54.939 213.177 59.0666ZM207.958 52.2589C207.297 54.2129 206.08 55.2489 204.293 55.3744C203.183 55.4564 201.487 55.1117 199.206 54.3395L189.581 51.0835C191.232 47.2805 192.792 43.1998 194.262 38.8533L195.04 36.5557C196.159 33.2471 196.894 30.5448 197.243 28.4358L202.249 30.1298C201.383 33.5113 200.448 36.6964 199.44 39.6772C201.551 40.4411 203.62 42.1683 205.66 44.8624C207.869 47.7874 208.636 50.2554 207.958 52.2589ZM202.135 50.289C203.307 46.8255 202.289 43.6352 199.085 40.7264C197.842 44.4009 196.491 48.0459 195.039 51.6621L197.887 52.6255C199.047 53.0178 199.957 53.0163 200.622 52.6229C201.229 52.2529 201.735 51.4713 202.135 50.289ZM255.458 51.5578C252.547 53.4215 250.269 53.7027 248.61 52.3995C246.975 51.1141 246.716 48.8536 247.834 45.6104L248.993 45.6051C248.997 46.957 249.69 48.1801 251.072 49.2667C252.57 50.4432 253.931 50.8352 255.163 50.4538L255.458 51.5578ZM240.434 77.9181L236.279 74.6519C238.516 71.4914 241.94 66.9749 246.549 61.1098C246.392 61.1578 244.119 61.7557 239.728 62.9036C236.612 63.7196 234.556 64.5337 233.562 65.3538C233.478 65.4223 233.154 65.8161 232.578 66.5486C231.828 67.5021 230.928 68.5241 229.865 69.6115L225.71 66.3452C228.534 63.3106 231.97 59.214 236.019 54.0629C238.104 51.4093 239.596 49.2353 240.483 47.5477L244.547 50.7414C243.474 52.5514 242.077 54.5761 240.356 56.8231C240.864 56.1571 239.339 58.0888 235.779 62.6175C236.202 62.4878 238.36 61.9326 242.257 60.9564C244.878 60.2961 246.977 59.5602 248.55 58.7623C249.512 57.6247 250.38 56.6817 251.145 55.9266L255.18 59.0987C253.82 60.3176 252.196 62.1189 250.313 64.5148C246.265 69.6659 242.977 74.1329 240.434 77.9181ZM270.509 120.891L267.793 115.586C269.806 114.542 271.619 113.119 273.242 111.314C275.212 109.106 276.081 107.075 275.845 105.214C271.527 107.426 267.945 109.135 265.108 110.345L262.698 105.64C266.533 104.064 271.55 101.686 277.746 98.512C280.589 97.0562 282.67 95.7991 283.978 94.7408L286.388 99.4456C284.098 100.862 281.197 102.473 277.681 104.273L277.713 104.336C280.972 103.964 283.314 103.818 284.743 103.896C287.816 104.073 289.775 104.979 290.614 106.617C291.172 107.706 291.435 108.875 291.403 110.111L286.004 111.486C285.973 110.423 285.698 109.385 285.182 108.378C284.092 106.25 281.686 105.369 277.973 105.743C278.338 109.053 277.924 111.997 276.73 114.577C275.444 117.323 273.373 119.424 270.509 120.891ZM277.345 150.069L276.413 144.848C278.466 143.511 281.564 142.095 285.712 140.586C290.176 138.95 293.319 137.62 295.134 136.582C290.524 135.131 286.132 134.772 281.949 135.52C279.458 135.964 277.209 136.807 275.199 138.052L274.245 132.71C275.054 132.239 275.897 131.928 276.763 131.773C279.964 131.201 283.327 131.363 286.849 132.257C289.076 132.824 292.261 133.993 296.394 135.767C297.266 135.32 298.067 134.808 298.804 134.236L299.782 139.71C297.529 141.16 293.78 142.866 288.534 144.826C283.431 146.714 279.701 148.463 277.345 150.069ZM300.008 184.204L294.686 182.548C295.2 181.806 295.492 180.987 295.559 180.099C295.714 178.054 293.593 176.283 289.181 174.778C285.986 173.683 282.909 173.026 279.952 172.802C274.91 172.418 270.497 172.876 266.713 174.17L265.484 169.551C269.667 169.869 273.652 170.331 277.437 170.941L277.829 165.788C285.332 166.358 293.402 165.326 302.042 162.685L301.587 168.674C293.219 170.454 285.578 171.078 278.671 170.553L278.627 171.131C283.561 171.953 287.913 172.983 291.687 174.211C298.173 176.331 301.324 178.633 301.136 181.105C301.053 182.204 300.675 183.238 300.008 184.204ZM271.649 212.672C269.73 211.916 268.717 210.748 268.598 209.164C268.535 208.143 268.93 206.548 269.782 204.389L273.995 193.705C277.829 195.563 282.944 197.751 289.333 200.27C292.136 201.375 294.434 202.111 296.237 202.475L289.882 218.59C288.057 216.654 285.929 214.877 283.496 213.268L283.534 213.17C283.552 213.19 283.581 213.214 283.62 213.242C283.832 213.326 284.705 213.222 286.239 212.927C288.044 212.58 289.036 212.398 289.2 212.381C290.719 211.613 292.038 209.815 293.156 206.98C291.308 206.459 288.562 205.484 284.921 204.048C284.031 206.242 282.18 208.378 279.365 210.455C276.275 212.745 273.699 213.481 271.649 212.672ZM273.904 206.954C277.84 208.506 281.171 207.407 283.896 203.644C279.917 202.074 276.339 200.556 273.16 199.095L272.045 201.924C271.55 203.178 271.424 204.186 271.665 204.95C271.932 205.804 272.678 206.47 273.904 206.954Z" fill="white"/>
</svg>
